<svg version="1.1" viewBox="0.0 0.0 960.0 540.0" fill="none" stroke="none" stroke-linecap="square" stroke-miterlimit="10" xmlns:xlink="http://www.w3.org/1999/xlink" xmlns="http://www.w3.org/2000/svg"><clipPath id="g3842b862ac2_1_133.0"><path d="m0 0l960.0 0l0 540.0l-960.0 0l0 -540.0z" clip-rule="nonzero"/></clipPath><g clip-path="url(#g3842b862ac2_1_133.0)"><path fill="#cfe2f3" d="m0 0l960.0 0l0 540.0l-960.0 0z" fill-rule="evenodd"/><path fill="#eeeeee" d="m612.02234 219.43439l257.60626 0l0 91.590546l-257.60626 0z" fill-rule="evenodd"/><path stroke="#595959" stroke-width="1.0" stroke-linejoin="round" stroke-linecap="butt" d="m612.02234 219.43439l257.60626 0l0 91.590546l-257.60626 0z" fill-rule="evenodd"/><path fill="#000000" d="m660.254 272.14966l0 -13.359375l1.78125 0l0 11.78125l6.5625 0l0 1.578125l-8.34375 0zm9.641357 -4.84375q0 -2.6875 1.484375 -3.96875q1.25 -1.078125 3.046875 -1.078125q2.0 0 3.265625 1.3125q1.265625 1.296875 1.265625 3.609375q0 1.859375 -0.5625 2.9375q-0.5625 1.0625 -1.640625 1.65625q-1.0625 0.59375 -2.328125 0.59375q-2.03125 0 -3.28125 -1.296875q-1.25 -1.3125 -1.25 -3.765625zm1.6875 0q0 1.859375 0.796875 2.796875q0.8125 0.921875 2.046875 0.921875q1.21875 0 2.03125 -0.921875q0.8125 -0.9375 0.8125 -2.84375q0 -1.796875 -0.8125 -2.71875q-0.8125 -0.921875 -2.03125 -0.921875q-1.234375 0 -2.046875 0.921875q-0.796875 0.90625 -0.796875 2.765625zm15.610046 3.65625q-0.921875 0.765625 -1.765625 1.09375q-0.828125 0.3125 -1.796875 0.3125q-1.59375 0 -2.453125 -0.78125q-0.859375 -0.78125 -0.859375 -1.984375q0 -0.71875 0.328125 -1.296875q0.328125 -0.59375 0.84375 -0.9375q0.53125 -0.359375 1.1875 -0.546875q0.46875 -0.125 1.453125 -0.25q1.984375 -0.234375 2.921875 -0.5625q0.015625 -0.34375 0.015625 -0.421875q0 -1.0 -0.46875 -1.421875q-0.625 -0.546875 -1.875 -0.546875q-1.15625 0 -1.703125 0.40625q-0.546875 0.40625 -0.8125 1.421875l-1.609375 -0.21875q0.21875 -1.015625 0.71875 -1.640625q0.5 -0.640625 1.453125 -0.984375q0.953125 -0.34375 2.1875 -0.34375q1.25 0 2.015625 0.296875q0.78125 0.28125 1.140625 0.734375q0.375 0.4375 0.515625 1.109375q0.078125 0.421875 0.078125 1.515625l0 2.1875q0 2.28125 0.109375 2.890625q0.109375 0.59375 0.40625 1.15625l-1.703125 0q-0.265625 -0.515625 -0.328125 -1.1875zm-0.140625 -3.671875q-0.890625 0.375 -2.671875 0.625q-1.015625 0.140625 -1.4375 0.328125q-0.421875 0.1875 -0.65625 0.53125q-0.21875 0.34375 -0.21875 0.78125q0 0.65625 0.5 1.09375q0.5 0.4375 1.453125 0.4375q0.9375 0 1.671875 -0.40625q0.75 -0.421875 1.09375 -1.140625q0.265625 -0.5625 0.265625 -1.640625l0 -0.609375zm10.469482 4.859375l0 -1.21875q-0.90625 1.4375 -2.703125 1.4375q-1.15625 0 -2.125 -0.640625q-0.96875 -0.640625 -1.5 -1.78125q-0.53125 -1.140625 -0.53125 -2.625q0 -1.453125 0.484375 -2.625q0.484375 -1.1875 1.4375 -1.8125q0.96875 -0.625 2.171875 -0.625q0.875 0 1.546875 0.375q0.6875 0.359375 1.109375 0.953125l0 -4.796875l1.640625 0l0 13.359375l-1.53125 0zm-5.171875 -4.828125q0 1.859375 0.78125 2.78125q0.78125 0.921875 1.84375 0.921875q1.078125 0 1.828125 -0.875q0.75 -0.890625 0.75 -2.6875q0 -1.984375 -0.765625 -2.90625q-0.765625 -0.9375 -1.890625 -0.9375q-1.078125 0 -1.8125 0.890625q-0.734375 0.890625 -0.734375 2.8125zm14.699646 4.828125l0 -13.359375l9.65625 0l0 1.578125l-7.875 0l0 4.09375l7.375 0l0 1.5625l-7.375 0l0 4.546875l8.1875 0l0 1.578125l-9.96875 0zm11.1154785 0l3.53125 -5.03125l-3.265625 -4.640625l2.046875 0l1.484375 2.265625q0.421875 0.640625 0.671875 1.078125q0.40625 -0.59375 0.734375 -1.0625l1.640625 -2.28125l1.953125 0l-3.34375 4.546875l3.59375 5.125l-2.015625 0l-1.984375 -3.0l-0.515625 -0.8125l-2.546875 3.8125l-1.984375 0zm16.734375 -1.1875q-0.921875 0.765625 -1.765625 1.09375q-0.828125 0.3125 -1.796875 0.3125q-1.59375 0 -2.453125 -0.78125q-0.859375 -0.78125 -0.859375 -1.984375q0 -0.71875 0.328125 -1.296875q0.328125 -0.59375 0.84375 -0.9375q0.53125 -0.359375 1.1875 -0.546875q0.46875 -0.125 1.453125 -0.25q1.984375 -0.234375 2.921875 -0.5625q0.015625 -0.34375 0.015625 -0.421875q0 -1.0 -0.46875 -1.421875q-0.625 -0.546875 -1.875 -0.546875q-1.15625 0 -1.703125 0.40625q-0.546875 0.40625 -0.8125 1.421875l-1.609375 -0.21875q0.21875 -1.015625 0.71875 -1.640625q0.5 -0.640625 1.453125 -0.984375q0.953125 -0.34375 2.1875 -0.34375q1.25 0 2.015625 0.296875q0.78125 0.28125 1.140625 0.734375q0.375 0.4375 0.515625 1.109375q0.078125 0.421875 0.078125 1.515625l0 2.1875q0 2.28125 0.109375 2.890625q0.109375 0.59375 0.40625 1.15625l-1.703125 0q-0.265625 -0.515625 -0.328125 -1.1875zm-0.140625 -3.671875q-0.890625 0.375 -2.671875 0.625q-1.015625 0.140625 -1.4375 0.328125q-0.421875 0.1875 -0.65625 0.53125q-0.21875 0.34375 -0.21875 0.78125q0 0.65625 0.5 1.09375q0.5 0.4375 1.453125 0.4375q0.9375 0 1.671875 -0.40625q0.75 -0.421875 1.09375 -1.140625q0.265625 -0.5625 0.265625 -1.640625l0 -0.609375zm4.2037964 4.859375l0 -9.671875l1.46875 0l0 1.359375q0.453125 -0.71875 1.203125 -1.140625q0.765625 -0.4375 1.71875 -0.4375q1.078125 0 1.765625 0.453125q0.6875 0.4375 0.96875 1.234375q1.15625 -1.6875 2.984375 -1.6875q1.453125 0 2.21875 0.796875q0.78125 0.796875 0.78125 2.453125l0 6.640625l-1.640625 0l0 -6.09375q0 -0.984375 -0.15625 -1.40625q-0.15625 -0.4375 -0.578125 -0.703125q-0.421875 -0.265625 -0.984375 -0.265625q-1.015625 0 -1.6875 0.6875q-0.671875 0.671875 -0.671875 2.15625l0 5.625l-1.640625 0l0 -6.28125q0 -1.09375 -0.40625 -1.640625q-0.40625 -0.546875 -1.3125 -0.546875q-0.6875 0 -1.28125 0.359375q-0.59375 0.359375 -0.859375 1.0625q-0.25 0.703125 -0.25 2.03125l0 5.015625l-1.640625 0zm15.5408325 3.703125l0 -13.375l1.484375 0l0 1.25q0.53125 -0.734375 1.1875 -1.09375q0.671875 -0.375 1.625 -0.375q1.234375 0 2.171875 0.640625q0.953125 0.625 1.4375 1.796875q0.484375 1.15625 0.484375 2.546875q0 1.484375 -0.53125 2.671875q-0.53125 1.1875 -1.546875 1.828125q-1.015625 0.625 -2.140625 0.625q-0.8125 0 -1.46875 -0.34375q-0.65625 -0.34375 -1.0625 -0.875l0 4.703125l-1.640625 0zm1.484375 -8.484375q0 1.859375 0.75 2.765625q0.765625 0.890625 1.828125 0.890625q1.09375 0 1.875 -0.921875q0.78125 -0.9375 0.78125 -2.875q0 -1.84375 -0.765625 -2.765625q-0.75 -0.921875 -1.8125 -0.921875q-1.046875 0 -1.859375 0.984375q-0.796875 0.96875 -0.796875 2.84375zm8.844482 4.78125l0 -13.359375l1.640625 0l0 13.359375l-1.640625 0zm10.81665 -3.109375l1.6875 0.203125q-0.40625 1.484375 -1.484375 2.3125q-1.078125 0.8125 -2.765625 0.8125q-2.125 0 -3.375 -1.296875q-1.234375 -1.3125 -1.234375 -3.671875q0 -2.453125 1.25 -3.796875q1.265625 -1.34375 3.265625 -1.34375q1.9375 0 3.15625 1.328125q1.234375 1.3125 1.234375 3.703125q0 0.15625 0 0.4375l-7.21875 0q0.09375 1.59375 0.90625 2.453125q0.8125 0.84375 2.015625 0.84375q0.90625 0 1.546875 -0.46875q0.640625 -0.484375 1.015625 -1.515625zm-5.390625 -2.65625l5.40625 0q-0.109375 -1.21875 -0.625 -1.828125q-0.78125 -0.953125 -2.03125 -0.953125q-1.125 0 -1.90625 0.765625q-0.765625 0.75 -0.84375 2.015625zm14.527771 5.765625l0 -13.359375l4.609375 0q1.546875 0 2.375 0.203125q1.140625 0.25 1.953125 0.953125q1.0625 0.890625 1.578125 2.28125q0.53125 1.390625 0.53125 3.171875q0 1.515625 -0.359375 2.703125q-0.359375 1.171875 -0.921875 1.9375q-0.546875 0.765625 -1.203125 1.21875q-0.65625 0.4375 -1.59375 0.671875q-0.9375 0.21875 -2.140625 0.21875l-4.828125 0zm1.765625 -1.578125l2.859375 0q1.3125 0 2.0625 -0.234375q0.75 -0.25 1.203125 -0.703125q0.625 -0.625 0.96875 -1.6875q0.359375 -1.0625 0.359375 -2.578125q0 -2.09375 -0.6875 -3.21875q-0.6875 -1.125 -1.671875 -1.5q-0.703125 -0.28125 -2.28125 -0.28125l-2.8125 0l0 10.203125zm17.816711 0.390625q-0.921875 0.765625 -1.765625 1.09375q-0.828125 0.3125 -1.796875 0.3125q-1.59375 0 -2.453125 -0.78125q-0.859375 -0.78125 -0.859375 -1.984375q0 -0.71875 0.328125 -1.296875q0.328125 -0.59375 0.84375 -0.9375q0.53125 -0.359375 1.1875 -0.546875q0.46875 -0.125 1.453125 -0.25q1.984375 -0.234375 2.921875 -0.5625q0.015625 -0.34375 0.015625 -0.421875q0 -1.0 -0.46875 -1.421875q-0.625 -0.546875 -1.875 -0.546875q-1.15625 0 -1.703125 0.40625q-0.546875 0.40625 -0.8125 1.421875l-1.609375 -0.21875q0.21875 -1.015625 0.71875 -1.640625q0.5 -0.640625 1.453125 -0.984375q0.953125 -0.34375 2.1875 -0.34375q1.25 0 2.015625 0.296875q0.78125 0.28125 1.140625 0.734375q0.375 0.4375 0.515625 1.109375q0.078125 0.421875 0.078125 1.515625l0 2.1875q0 2.28125 0.109375 2.890625q0.109375 0.59375 0.40625 1.15625l-1.703125 0q-0.265625 -0.515625 -0.328125 -1.1875zm-0.140625 -3.671875q-0.890625 0.375 -2.671875 0.625q-1.015625 0.140625 -1.4375 0.328125q-0.421875 0.1875 -0.65625 0.53125q-0.21875 0.34375 -0.21875 0.78125q0 0.65625 0.5 1.09375q0.5 0.4375 1.453125 0.4375q0.9375 0 1.671875 -0.40625q0.75 -0.421875 1.09375 -1.140625q0.265625 -0.5625 0.265625 -1.640625l0 -0.609375zm7.7819824 3.390625l0.234375 1.453125q-0.6875 0.140625 -1.234375 0.140625q-0.890625 0 -1.390625 -0.28125q-0.484375 -0.28125 -0.6875 -0.734375q-0.203125 -0.46875 -0.203125 -1.9375l0 -5.578125l-1.203125 0l0 -1.265625l1.203125 0l0 -2.390625l1.625 -0.984375l0 3.375l1.65625 0l0 1.265625l-1.65625 0l0 5.671875q0 0.6875 0.078125 0.890625q0.09375 0.203125 0.28125 0.328125q0.203125 0.109375 0.578125 0.109375q0.265625 0 0.71875 -0.0625zm7.9176636 0.28125q-0.921875 0.765625 -1.765625 1.09375q-0.828125 0.3125 -1.796875 0.3125q-1.59375 0 -2.453125 -0.78125q-0.859375 -0.78125 -0.859375 -1.984375q0 -0.71875 0.328125 -1.296875q0.328125 -0.59375 0.84375 -0.9375q0.53125 -0.359375 1.1875 -0.546875q0.46875 -0.125 1.453125 -0.25q1.984375 -0.234375 2.921875 -0.5625q0.015625 -0.34375 0.015625 -0.421875q0 -1.0 -0.46875 -1.421875q-0.625 -0.546875 -1.875 -0.546875q-1.15625 0 -1.703125 0.40625q-0.546875 0.40625 -0.8125 1.421875l-1.609375 -0.21875q0.21875 -1.015625 0.71875 -1.640625q0.5 -0.640625 1.453125 -0.984375q0.953125 -0.34375 2.1875 -0.34375q1.25 0 2.015625 0.296875q0.78125 0.28125 1.140625 0.734375q0.375 0.4375 0.515625 1.109375q0.078125 0.421875 0.078125 1.515625l0 2.1875q0 2.28125 0.109375 2.890625q0.109375 0.59375 0.40625 1.15625l-1.703125 0q-0.265625 -0.515625 -0.328125 -1.1875zm-0.140625 -3.671875q-0.890625 0.375 -2.671875 0.625q-1.015625 0.140625 -1.4375 0.328125q-0.421875 0.1875 -0.65625 0.53125q-0.21875 0.34375 -0.21875 0.78125q0 0.65625 0.5 1.09375q0.5 0.4375 1.453125 0.4375q0.9375 0 1.671875 -0.40625q0.75 -0.421875 1.09375 -1.140625q0.265625 -0.5625 0.265625 -1.640625l0 -0.609375z" fill-rule="nonzero"/><path fill="#9fc5e8" d="m422.89487 536.2318c5.054352 -148.11487 84.277405 -307.35474 197.24533 -396.4671c112.96796 -89.11235 234.7771 -88.45241 303.27405 1.6430817c68.49689 90.09549 68.58148 249.76506 0.21057129 397.53687z" fill-rule="evenodd"/><path fill="#eeeeee" d="m160.31306 84.88778l-57.574806 136.22049l-48.40945 -20.472443l57.574802 -136.22047z" fill-rule="evenodd"/><path stroke="#595959" stroke-width="0.5748031496062992" stroke-linejoin="round" stroke-linecap="butt" d="m160.31306 84.88778l-57.574806 136.22049l-48.40945 -20.472443l57.574802 -136.22047z" fill-rule="evenodd"/><path fill="#000000" d="m121.82661 98.71017l7.0515976 2.982132l-0.395401 0.9355011l-6.2169113 -2.6291504l-1.4720917 3.482933l-0.83467865 -0.3529892l1.867485 -4.4184265zm0.40842438 6.1776657q1.4103165 0.5964203 1.7665253 1.68013q0.28751373 0.88500214 -0.113967896 1.8348923q-0.4501419 1.0650253 -1.4207306 1.4349442q-0.9766693 0.38430786 -2.1855164 -0.12691498q-0.99298096 -0.4199295 -1.4408798 -0.9656067q-0.4335022 -0.53959656 -0.5128708 -1.2347794q-0.064971924 -0.6891098 0.220932 -1.3655472q0.4501419 -1.0650253 1.4207306 -1.4349442q0.9705887 -0.36991882 2.2657776 0.17782593zm-0.37714386 0.8923187q-0.99298096 -0.41993713 -1.6586838 -0.20948029q-0.6717911 0.22484589 -0.9455261 0.87249756q-0.27373505 0.6476517 0.033073425 1.2863388q0.32118988 0.644783 1.3285599 1.0708008q0.94981384 0.40167236 1.6072083 0.17074585q0.67178345 -0.22484589 0.9455185 -0.87249756q0.27373505 -0.6476517 -0.033065796 -1.2863464q-0.29850006 -0.61820984 -1.2770844 -1.0320587zm-5.4137573 7.4307404q-0.21051788 -0.6658325 -0.19463348 -1.1850204q0.02418518 -0.49871826 0.24317932 -1.0168381q0.35281372 -0.8347473 0.95041656 -1.1248932q0.60591125 -0.26966858 1.2535095 0.0042037964q0.3741684 0.15823364 0.60946655 0.4443512q0.24360657 0.30660248 0.31510925 0.65917206q0.06542206 0.36696625 0.02016449 0.754982q-0.05192566 0.2834015 -0.19895935 0.83195496q-0.3228531 1.0849304 -0.36306763 1.6616898q0.18708801 0.07911682 0.23026276 0.09738159q0.5324631 0.22518158 0.851738 0.07180023q0.42773438 -0.20930481 0.7014694 -0.8569565q0.26156616 -0.61886597 0.16736603 -0.9980011q-0.079818726 -0.37304688 -0.5658417 -0.7482376l0.4740219 -0.8004608q0.49819946 0.34640503 0.71969604 0.74544525q0.21541595 0.41342926 0.17520142 0.9901962q-0.025817871 0.5828476 -0.29956055 1.2304993q-0.27981567 0.6620407 -0.6084442 0.9980774q-0.3203125 0.35651398 -0.64404297 0.44015503q-0.3093338 0.08972168 -0.6912155 0.030014038q-0.24850464 -0.05419922 -0.8241501 -0.29763794l-1.1512756 -0.48687744q-1.208847 -0.51122284 -1.5580902 -0.6080246q-0.34093475 -0.07632446 -0.7017517 -0.02533722l0.38323212 -0.9067154q0.32817078 -0.013893127 0.70619965 0.095077515zm1.9588089 0.7435608q0.013656616 -0.5540619 0.2795334 -1.5443344q0.14481354 -0.5834198 0.13532257 -0.8419037q0.0048980713 -0.25240326 -0.1274414 -0.46105194q-0.1384201 -0.19425201 -0.36867523 -0.2916336q-0.3453827 -0.14605713 -0.6851349 0.015625q-0.3397522 0.16168213 -0.5587387 0.6798096q-0.20682526 0.4893341 -0.15519714 0.9692154q0.059928894 0.5003586 0.36109924 0.8312988q0.22698975 0.2656479 0.8026352 0.5090866l0.31659698 0.13388824zm-4.903351 4.4572144l0.64759827 0.27387238q-0.5559006 -0.8118973 -0.15441895 -1.7617874q0.25548553 -0.6044769 0.8054657 -0.98262024q0.5582886 -0.35766602 1.2843704 -0.3899002q0.7260895 -0.032234192 1.5032043 0.2964096q0.7627182 0.32255554 1.2720413 0.8433151q0.52371216 0.52684784 0.6417999 1.1705551q0.11199951 0.6580963 -0.1556549 1.291359q-0.19465637 0.4605484 -0.5482025 0.7351532q-0.3391571 0.28069305 -0.7530899 0.3770752l2.5328217 1.0711365l-0.35890198 0.849144l-7.0515976 -2.9821396l0.3345642 -0.7915726zm3.7090683 -1.6717072q-0.9785919 -0.41384125 -1.6442871 -0.20339203q-0.6657028 0.21045685 -0.9029465 0.7717514q-0.23723602 0.5613022 0.052955627 1.1590347q0.30457306 0.6038208 1.2543869 1.0054932q1.0505447 0.44428253 1.7162399 0.23382568q0.6596222 -0.19606018 0.9090271 -0.78614044q0.24331665 -0.5756912 -0.067344666 -1.165123q-0.29626465 -0.5833435 -1.3180313 -1.0154495zm-5.833748 6.6986465l7.0515976 2.982132l-2.1594696 5.1092606l-0.83467865 -0.35299683l1.7640762 -4.173752l-2.1586533 -0.91290283l-1.6484985 3.9003143l-0.8202896 -0.34690857l1.6484985 -3.9003067l-2.4032974 -1.0163574l-1.8309937 4.3320694l-0.83467865 -0.35298157l2.226387 -5.2675705zm-2.4812012 5.8704605l1.8715439 2.9969025l3.1764374 -0.6924591l-0.45622253 1.079422l-1.5229416 0.27204895q-0.44271088 0.08421326 -0.72771454 0.116363525q0.22535706 0.34977722 0.3970108 0.62594604l0.8438568 1.3747559l-0.43797302 1.0362396l-1.6550903 -2.7866058l-3.5084686 0.75561523l0.44406128 -1.0506287l2.027069 -0.3811798l0.5533905 -0.105270386l-1.4490204 -2.1905212l0.44406128 -1.0506287zm-3.1048126 9.111832q-0.21051788 -0.6658325 -0.19463348 -1.1850281q0.02418518 -0.49871826 0.24317932 -1.0168304q0.35281372 -0.8347473 0.95041656 -1.1248932q0.6059189 -0.26966858 1.2535095 0.004196167q0.3741684 0.15823364 0.60946655 0.4443512q0.24360657 0.3066101 0.31510925 0.6591797q0.06542206 0.36695862 0.02017212 0.75497437q-0.05193329 0.2834015 -0.19896698 0.83195496q-0.32284546 1.0849304 -0.36306 1.6616974q0.18708038 0.07911682 0.23025513 0.09736633q0.5324631 0.22518921 0.8517456 0.07180786q0.42772675 -0.20930481 0.7014618 -0.85694885q0.2615738 -0.61886597 0.16736603 -0.9980011q-0.079811096 -0.37306213 -0.5658417 -0.74824524l0.47402954 -0.8004608q0.49819183 0.34640503 0.7196884 0.7454529q0.21541595 0.41342163 0.17520142 0.9901886q-0.025817871 0.58283997 -0.29955292 1.2304993q-0.2798233 0.66204834 -0.6084442 0.9980774q-0.32032013 0.3565216 -0.6440506 0.44015503q-0.3093338 0.08972168 -0.6912155 0.030014038q-0.24850464 -0.05419922 -0.82414246 -0.29763794l-1.1512833 -0.48687744q-1.208847 -0.5112152 -1.5580902 -0.60801697q-0.34093475 -0.07632446 -0.7017517 -0.025344849l0.38323212 -0.90670776q0.3281784 -0.013900757 0.70619965 0.095077515zm1.9588165 0.7435608q0.013648987 -0.5540619 0.2795334 -1.544342q0.14480591 -0.5834198 0.13531494 -0.8419037q0.0048980713 -0.25239563 -0.1274414 -0.4610443q-0.13841248 -0.19425964 -0.36867523 -0.29164124q-0.3453827 -0.14605713 -0.6851349 0.015625q-0.33974457 0.16168213 -0.5587387 0.6798096q-0.20681763 0.4893341 -0.15519714 0.969223q0.059928894 0.50035095 0.36109924 0.8312988q0.22698975 0.26564026 0.8026352 0.509079l0.3166046 0.13389587zm-3.4981766 1.1325989l5.1088104 2.1605225l-0.32848358 0.7771759l-0.7195511 -0.30429077q0.27075958 0.40290833 0.3367691 0.88887024q0.059936523 0.50035095 -0.15905762 1.0184784q-0.23723602 0.56129456 -0.6339569 0.8176422q-0.38841248 0.27682495 -0.8665848 0.2442627q0.6367569 0.98179626 0.22310638 1.9604797q-0.32239532 0.76278687 -0.9100647 0.9892731q-0.58766174 0.2264862 -1.4655151 -0.14476013l-3.511406 -1.4849701l0.35890198 -0.8491516l3.223587 1.363266q0.51807404 0.21910095 0.7848282 0.2301178q0.26675415 0.011016846 0.49359894 -0.16448975q0.23516083 -0.15501404 0.36289978 -0.45726013q0.22507477 -0.5325012 0.017372131 -1.0444641q-0.207695 -0.5119629 -0.99920654 -0.8466797l-2.9645462 -1.2537231l0.3649826 -0.8635254l3.3243256 1.4058533q0.5756378 0.24343872 0.9547043 0.14927673q0.37298584 -0.07977295 0.57980347 -0.56910706q0.15207672 -0.35980225 0.08442688 -0.76164246q-0.0593338 -0.38136292 -0.37267303 -0.68351746q-0.29894257 -0.29606628 -1.0041046 -0.59428406l-2.6479492 -1.119812l0.3649826 -0.86354065zm-5.428215 7.384674l7.0659943 2.9882202l-0.33457184 0.7915802l-0.6619873 -0.279953q0.27297974 0.43777466 0.31407166 0.8623047q0.04940033 0.44500732 -0.16350555 0.9487457q-0.27981567 0.6620331 -0.8320236 1.00531q-0.54389954 0.36375427 -1.2722092 0.3611145q-0.7139206 0.0034484863 -1.4478607 -0.30693054q-0.77711487 -0.3286438 -1.2886581 -0.88427734q-0.5115433 -0.5556183 -0.61746216 -1.2281189q-0.10592651 -0.67248535 0.1434784 -1.2625732q0.18248749 -0.4317627 0.5011749 -0.70414734q0.33307648 -0.2662964 0.7182236 -0.37486267l-2.489647 -1.0528717l0.3649826 -0.86354065zm4.1554337 2.6904144q-0.99298096 -0.41993713 -1.6321259 -0.23217773q-0.6452255 0.20213318 -0.8885498 0.77783203q-0.24332428 0.5756836 0.07564545 1.1855927q0.3128891 0.6242981 1.3490448 1.0625q0.9785919 0.41384888 1.6238174 0.21170044q0.65961456 -0.19606018 0.8968582 -0.75737q0.2311554 -0.5469055 -0.10443115 -1.1977692q-0.34166718 -0.63645935 -1.3202591 -1.0503082zm-4.50959 3.6058502l7.0515976 2.982132l-0.36497498 0.8635254l-7.051605 -2.982132l0.3649826 -0.8635254zm-0.76942444 6.395813l-0.48397064 0.8641052q-0.700264 -0.5506134 -0.8886719 -1.3088837q-0.1884079 -0.75827026 0.18873596 -1.650589q0.47447968 -1.1226044 1.4450684 -1.4925232q0.9645004 -0.35551453 2.2165222 0.17396545q1.2807999 0.5416565 1.7061386 1.5019073q0.4397354 0.9663391 -0.010406494 2.031372q-0.43190002 1.0218506 -1.4107971 1.3712921q-0.97058105 0.36991882 -2.236992 -0.16564941q-0.07196045 -0.030426025 -0.2241745 -0.11177063l1.6119995 -3.8139496q-0.8590088 -0.29542542 -1.4959335 -0.07279968q-0.6286087 0.24310303 -0.90234375 0.8907623q-0.20074463 0.47494507 -0.09600067 0.9094238q0.11304474 0.45495605 0.5808258 0.8733368zm2.608673 -2.238861l-1.2044373 2.8496704q0.6719284 0.2163086 1.1041031 0.07673645q0.68009186 -0.20436096 0.95383453 -0.85202026q0.25548553 -0.60446167 0.022857666 -1.1778564q-0.23262024 -0.5733948 -0.87635803 -0.89653015zm-6.294853 6.3848877l7.0515976 2.982132l-1.0280304 2.4322968q-0.3467331 0.8203583 -0.6299591 1.2095184q-0.38500977 0.54971313 -0.94166565 0.8232422q-0.7121353 0.36045837 -1.5616608 0.3235321q-0.8495178 -0.03694153 -1.784935 -0.43252563q-0.80589294 -0.3408203 -1.3456268 -0.7896118q-0.5397339 -0.4487915 -0.82933044 -0.927536q-0.28128815 -0.45825195 -0.3655548 -0.9010315q-0.08426666 -0.4427948 -8.773804E-4 -1.001297q0.09169769 -0.5380249 0.35934448 -1.1712799l1.0766983 -2.5474396zm0.43928528 1.2884827l-0.632637 1.4967957q-0.2980652 0.7052307 -0.3327942 1.1485901q-0.040802002 0.45776367 0.08604431 0.7998047q0.19108582 0.47099304 0.67933655 0.88105774q0.4821701 0.42445374 1.2880707 0.76527405q1.1081085 0.46861267 1.8502121 0.3583374q0.7421036 -0.11029053 1.1625671 -0.54319763q0.30207062 -0.31333923 0.65488434 -1.1481018l0.6265564 -1.4823914l-5.3822403 -2.2761688zm-4.177864 9.322815q-0.21051025 -0.6658325 -0.19463348 -1.1850128q0.02419281 -0.49871826 0.24317932 -1.0168457q0.35281372 -0.8347473 0.9504242 -1.1248932q0.60591125 -0.26966858 1.2535095 0.004196167q0.37416077 0.1582489 0.6094589 0.44436646q0.24360657 0.30659485 0.31511688 0.6591644q0.06542206 0.36695862 0.02016449 0.75497437q-0.05193329 0.28341675 -0.19896698 0.8319702q-0.32284546 1.0849304 -0.36306 1.6616821q0.18708038 0.07911682 0.23025513 0.09738159q0.5324707 0.22517395 0.8517456 0.07180786q0.42772675 -0.20930481 0.7014694 -0.8569641q0.26156616 -0.61886597 0.1673584 -0.9980011q-0.079811096 -0.37304688 -0.5658417 -0.74824524l0.47402954 -0.80044556q0.49819183 0.34640503 0.71969604 0.7454376q0.21541595 0.4134369 0.17520142 0.9901886q-0.0258255 0.5828552 -0.29956055 1.2304993q-0.27981567 0.66204834 -0.6084442 0.99809265q-0.32032013 0.35650635 -0.64404297 0.44015503q-0.30934143 0.08972168 -0.69122314 0.030014038q-0.24850464 -0.05419922 -0.82414246 -0.29763794l-1.1512833 -0.48687744q-1.208847 -0.51123047 -1.5580902 -0.6080322q-0.34093475 -0.07632446 -0.7017517 -0.02532959l0.38323212 -0.906723q0.3281784 -0.013885498 0.70619965 0.095077515zm1.9588165 0.7435608q0.013656616 -0.5540619 0.2795334 -1.5443268q0.14480591 -0.5834198 0.13531494 -0.84191895q0.0048980713 -0.25239563 -0.12743378 -0.4610443q-0.1384201 -0.19425964 -0.36867523 -0.29162598q-0.34539032 -0.14607239 -0.6851349 0.015625q-0.3397522 0.16168213 -0.5587387 0.6797943q-0.20682526 0.48934937 -0.15520477 0.969223q0.059936523 0.5003662 0.36110687 0.8312988q0.22698975 0.26564026 0.80262756 0.50909424l0.3166046 0.13388062zm-3.5240173 3.361023l-0.8113861 -0.20741272q0.065727234 -0.3963318 0.18738556 -0.6841736q0.20074463 -0.47494507 0.45414734 -0.6731415q0.26779175 -0.19212341 0.5611038 -0.20379639q0.28723145 0.0027160645 1.0643463 0.33135986l2.9357681 1.2415466l0.26765442 -0.63327026l0.67637634 0.28604126l-0.26765442 0.63327026l1.2664108 0.53556824l0.15309143 1.0826263l-1.7844849 -0.7546692l-0.37106323 0.8779297l-0.67637634 -0.28604126l0.37106323 -0.8779297l-2.9789429 -1.2597961q-0.3741684 -0.15823364 -0.5075455 -0.16374207q-0.11898041 5.79834E-4 -0.21913147 0.07698059q-0.10622406 0.090789795 -0.18530273 0.27789307q-0.060829163 0.1439209 -0.1354599 0.40075684zm-1.9099045 4.117447q-0.21051788 -0.6658325 -0.19463348 -1.1850281q0.02418518 -0.49871826 0.24317169 -1.0168304q0.35282135 -0.8347626 0.9504242 -1.1249084q0.60591125 -0.26966858 1.2535095 0.004211426q0.3741684 0.15823364 0.60946655 0.4443512q0.24360657 0.30659485 0.31510925 0.6591644q0.06542206 0.36697388 0.02016449 0.7549896q-0.05192566 0.2834015 -0.19895935 0.83195496q-0.3228531 1.0849304 -0.36306763 1.6616974q0.18708801 0.07911682 0.23025513 0.09736633q0.5324707 0.22518921 0.8517456 0.07180786q0.42773438 -0.20930481 0.7014694 -0.85694885q0.26156616 -0.6188812 0.16736603 -0.99801636q-0.079818726 -0.37304688 -0.5658417 -0.74823l0.4740219 -0.8004608q0.49819946 0.34640503 0.71969604 0.7454529q0.21541595 0.41342163 0.17520142 0.9901886q-0.0258255 0.58283997 -0.29956055 1.2304993q-0.27981567 0.66204834 -0.6084442 0.9980774q-0.3203125 0.3565216 -0.64404297 0.44015503q-0.3093338 0.08972168 -0.6912155 0.030014038q-0.24850464 -0.05419922 -0.8241501 -0.29763794l-1.1512833 -0.48687744q-1.2088394 -0.51123047 -1.5580826 -0.6080322q-0.34093475 -0.076309204 -0.7017517 -0.02532959l0.38323212 -0.90670776q0.32817078 -0.013900757 0.70619965 0.095077515zm1.9588089 0.7435608q0.013656616 -0.5540619 0.2795334 -1.544342q0.14481354 -0.5834198 0.13531494 -0.8419037q0.0049057007 -0.25239563 -0.12743378 -0.4610443q-0.1384201 -0.19425964 -0.36867523 -0.29164124q-0.3453827 -0.14605713 -0.6851349 0.015625q-0.3397522 0.16168213 -0.5587387 0.6798096q-0.20682526 0.4893341 -0.15519714 0.96920776q0.059928894 0.5003662 0.36109924 0.8313141q0.22698975 0.26564026 0.80262756 0.509079l0.3166046 0.13389587z" fill-rule="nonzero"/><g mask="url(#mask-g3842b862ac2_1_133.1)"><use xlink:href="#g3842b862ac2_1_133.1" transform="matrix(1.0 0.0 0.0 -1.0 0.0 545.6467181664361)"/></g><defs><mask id="mask-g3842b862ac2_1_133.1" maskUnits="userSpaceOnUse" x="-78.32291548556427" y="274.82335908321807" width="286.35833762413665" height="356.77875755349214"><linearGradient gradientUnits="userSpaceOnUse" id="gradient-g3842b862ac2_1_133.1" x1="-78.32291548181172" y1="274.8223224688776" x2="-78.32330294362143" y2="381.8562649709713"><stop offset="0%" stop-color="#ffffff" stop-opacity="1.0"/><stop offset="100%" stop-color="#ffffff" stop-opacity="0.0"/></linearGradient><rect fill="url(#gradient-g3842b862ac2_1_133.1)" x="-78.32291548556427" y="274.82335908321807" width="286.35833762413665" height="356.77875755349214"/></mask></defs><g id="g3842b862ac2_1_133.1"><path fill="#c8d5e1" d="m35.03909 -85.9554c77.19983 35.78366 143.70412 113.277435 165.5791 192.94016c21.87497 79.66272 -5.70166 143.93295 -68.65892 160.01686c-62.957268 16.083862 -147.41641 -19.564224 -210.2822 -88.7549z" fill-rule="evenodd"/></g><path fill="#cfe2f3" d="m14.67034 -41.281685c55.82119 18.71254 103.3083 69.15975 118.19216 125.55968c14.883881 56.399925 -6.1232605 106.29412 -52.285316 124.183235c-46.16206 17.88913 -107.28209 -0.17843628 -152.1236 -44.968918z" fill-rule="evenodd"/><path fill="#c8d5e1" d="m-14.976916 28.162447c27.636417 9.588564 51.28732 35.364082 58.53824 63.796867c7.2509155 28.432777 -3.55505 53.025703 -26.74579 60.86982c-23.190742 7.8441315 -53.466988 -2.8529968 -74.93659 -26.476402z" fill-rule="evenodd"/><path fill="#cfe2f3" d="m508.37393 538.68677l0 0c-7.8374023 -102.24579 40.88925 -212.64594 121.2775 -274.7789c80.388245 -62.132935 174.68085 -62.273956 234.68835 -0.35098267c60.007446 61.922943 72.47449 172.2316 31.029663 274.5511z" fill-rule="evenodd"/><path fill="#9fc5e8" d="m639.8372 539.12946l0 0c-3.3513794 -50.84143 21.973633 -106.26694 62.682007 -137.1838c40.708374 -30.91687 87.49811 -30.260468 115.809326 1.6246948c28.311218 31.885132 31.674683 87.713135 8.325012 138.17996z" fill-rule="evenodd"/><path fill="#ffffff" fill-opacity="0.7" d="m410.46194 52.475674l0 0c0 -3.9689903 3.2174988 -7.1864967 7.186493 -7.1864967l143.39081 0c1.9059448 0 3.7338867 0.7571449 5.081604 2.1048775c1.3477173 1.3477287 2.1048584 3.175644 2.1048584 5.0816193l0 46.508892c0 3.9689941 -3.2174683 7.1865005 -7.1864624 7.1865005l-143.39081 0c-3.9689941 0 -7.186493 -3.2175064 -7.186493 -7.1865005z" fill-rule="evenodd"/><path stroke="#c8d5e1" stroke-width="2.0" stroke-linejoin="round" stroke-linecap="butt" d="m410.46194 52.475674l0 0c0 -3.9689903 3.2174988 -7.1864967 7.186493 -7.1864967l143.39081 0c1.9059448 0 3.7338867 0.7571449 5.081604 2.1048775c1.3477173 1.3477287 2.1048584 3.175644 2.1048584 5.0816193l0 46.508892c0 3.9689941 -3.2174683 7.1865005 -7.1864624 7.1865005l-143.39081 0c-3.9689941 0 -7.186493 -3.2175064 -7.186493 -7.1865005z" fill-rule="evenodd"/><path fill="#ffffff" fill-opacity="0.9" d="m410.46194 134.94722l0 0c0 -5.399475 4.377136 -9.776596 9.776581 -9.776596l498.24213 0c2.5928955 0 5.07959 1.0300293 6.913086 2.8634949c1.833435 1.8334656 2.8634644 4.320175 2.8634644 6.913101l0 358.65155c0 5.399475 -4.377136 9.776581 -9.77655 9.776581l-498.24213 0c-5.3994446 0 -9.776581 -4.3771057 -9.776581 -9.776581z" fill-rule="evenodd"/><path stroke="#c8d5e1" stroke-width="2.0" stroke-linejoin="round" stroke-linecap="butt" d="m410.46194 134.94722l0 0c0 -5.399475 4.377136 -9.776596 9.776581 -9.776596l498.24213 0c2.5928955 0 5.07959 1.0300293 6.913086 2.8634949c1.833435 1.8334656 2.8634644 4.320175 2.8634644 6.913101l0 358.65155c0 5.399475 -4.377136 9.776581 -9.77655 9.776581l-498.24213 0c-5.3994446 0 -9.776581 -4.3771057 -9.776581 -9.776581z" fill-rule="evenodd"/><path fill="#ffffff" fill-opacity="0.9" d="m54.328083 53.798454l0 0c0 -4.6998024 3.8099403 -8.509739 8.509739 -8.509739l312.17737 0c2.2569275 0 4.421417 0.89655685 6.0173035 2.492443c1.5958862 1.5958862 2.4924316 3.7603722 2.4924316 6.017296l0 441.05927c0 4.6997986 -3.8099365 8.509735 -8.509735 8.509735l-312.17737 0c-4.6997986 0 -8.509739 -3.8099365 -8.509739 -8.509735z" fill-rule="evenodd"/><path stroke="#c8d5e1" stroke-width="2.0" stroke-linejoin="round" stroke-linecap="butt" d="m54.328083 53.798454l0 0c0 -4.6998024 3.8099403 -8.509739 8.509739 -8.509739l312.17737 0c2.2569275 0 4.421417 0.89655685 6.0173035 2.492443c1.5958862 1.5958862 2.4924316 3.7603722 2.4924316 6.017296l0 441.05927c0 4.6997986 -3.8099365 8.509735 -8.509735 8.509735l-312.17737 0c-4.6997986 0 -8.509739 -3.8099365 -8.509739 -8.509735z" fill-rule="evenodd"/><path fill="#000000" fill-opacity="0.0" d="m90.12336 51.2654l257.6063 0l0 48.47244l-257.6063 0z" fill-rule="evenodd"/><path fill="#595959" d="m137.54298 83.305405q-0.671875 0 -1.03125 -0.578125q-0.359375 -0.578125 -0.078125 -1.21875l6.75 -16.109375q0.359375 -0.84375 1.171875 -0.84375q0.875 0 1.171875 0.84375l6.78125 16.15625q0.265625 0.671875 -0.09375 1.21875q-0.34375 0.53125 -1.046875 0.53125q-0.359375 0 -0.6875 -0.203125q-0.3125 -0.203125 -0.453125 -0.5625l-5.953125 -14.78125l0.671875 0l-6.046875 14.78125q-0.171875 0.375 -0.5 0.578125q-0.328125 0.1875 -0.65625 0.1875zm1.265625 -4.125l0.96875 -2.0625l9.40625 0l0.953125 2.0625l-11.328125 0zm17.590698 4.125q-0.515625 0 -0.875 -0.359375q-0.359375 -0.359375 -0.359375 -0.890625l0 -16.25q0 -0.546875 0.359375 -0.890625q0.359375 -0.359375 0.875 -0.359375q0.5625 0 0.90625 0.359375q0.34375 0.34375 0.34375 0.890625l0 16.25q0 0.53125 -0.34375 0.890625q-0.34375 0.359375 -0.90625 0.359375zm14.327957 0q-0.515625 0 -0.875 -0.359375q-0.359375 -0.359375 -0.359375 -0.890625l0 -16.25q0 -0.546875 0.359375 -0.890625q0.359375 -0.359375 0.875 -0.359375l10.859375 0q0.546875 0 0.875 0.328125q0.34375 0.328125 0.34375 0.859375q0 0.5 -0.34375 0.8125q-0.328125 0.3125 -0.875 0.3125l-9.609375 0l0 5.828125l6.890625 0q0.5625 0 0.890625 0.328125q0.34375 0.328125 0.34375 0.828125q0 0.5 -0.34375 0.828125q-0.328125 0.328125 -0.890625 0.328125l-6.890625 0l0 6.0l9.609375 0q0.546875 0 0.875 0.3125q0.34375 0.296875 0.34375 0.8125q0 0.53125 -0.34375 0.859375q-0.328125 0.3125 -0.875 0.3125l-10.859375 0zm19.753082 -0.03125q-0.734375 0 -1.140625 -0.78125l-5.09375 -10.734375q-0.1875 -0.40625 -0.03125 -0.796875q0.15625 -0.40625 0.609375 -0.609375q0.40625 -0.21875 0.828125 -0.078125q0.421875 0.140625 0.640625 0.546875l4.75 10.25l-1.15625 0l4.703125 -10.25q0.21875 -0.40625 0.65625 -0.546875q0.453125 -0.140625 0.90625 0.078125q0.4375 0.1875 0.578125 0.59375q0.140625 0.40625 -0.046875 0.8125l-5.09375 10.734375q-0.359375 0.78125 -1.109375 0.78125zm13.703217 0.125q-1.75 0 -3.140625 -0.875q-1.390625 -0.875 -2.203125 -2.375q-0.796875 -1.5 -0.796875 -3.390625q0 -1.90625 0.875 -3.40625q0.875 -1.515625 2.375 -2.390625q1.5 -0.875 3.375 -0.875q1.875 0 3.359375 0.875q1.484375 0.875 2.359375 2.390625q0.890625 1.5 0.890625 3.40625l-0.9375 0q0 1.890625 -0.8125 3.390625q-0.796875 1.5 -2.1875 2.375q-1.390625 0.875 -3.15625 0.875zm0.484375 -2.15625q1.234375 0 2.1875 -0.578125q0.953125 -0.59375 1.5 -1.609375q0.5625 -1.03125 0.5625 -2.296875q0 -1.296875 -0.5625 -2.3125q-0.546875 -1.03125 -1.5 -1.609375q-0.953125 -0.59375 -2.1875 -0.59375q-1.203125 0 -2.171875 0.59375q-0.96875 0.578125 -1.53125 1.609375q-0.5625 1.015625 -0.5625 2.3125q0 1.265625 0.5625 2.296875q0.5625 1.015625 1.53125 1.609375q0.96875 0.578125 2.171875 0.578125zm5.375 2.09375q-0.53125 0 -0.875 -0.34375q-0.34375 -0.359375 -0.34375 -0.890625l0 -3.671875l0.453125 -2.546875l2.0 0.875l0 5.34375q0 0.53125 -0.359375 0.890625q-0.34375 0.34375 -0.875 0.34375zm7.996826 -0.03125q-1.0625 0 -1.875 -0.578125q-0.8125 -0.578125 -1.265625 -1.5625q-0.453125 -1.0 -0.453125 -2.296875l0 -13.109375q0 -0.53125 0.328125 -0.859375q0.34375 -0.34375 0.859375 -0.34375q0.53125 0 0.859375 0.34375q0.34375 0.328125 0.34375 0.859375l0 13.109375q0 0.890625 0.328125 1.46875q0.34375 0.5625 0.875 0.5625l0.59375 0q0.484375 0 0.78125 0.34375q0.296875 0.328125 0.296875 0.859375q0 0.53125 -0.453125 0.875q-0.453125 0.328125 -1.171875 0.328125l-0.046875 0zm9.606232 0.125q-1.65625 0 -2.96875 -0.703125q-1.3125 -0.71875 -2.078125 -2.078125q-0.75 -1.375 -0.75 -3.375l0 -5.890625q0 -0.53125 0.34375 -0.875q0.359375 -0.359375 0.890625 -0.359375q0.515625 0 0.859375 0.359375q0.359375 0.34375 0.359375 0.875l0 5.890625q0 1.34375 0.5 2.234375q0.515625 0.875 1.375 1.296875q0.859375 0.40625 1.9375 0.40625q1.03125 0 1.828125 -0.40625q0.8125 -0.40625 1.296875 -1.09375q0.484375 -0.703125 0.484375 -1.5625l1.5 0q0 1.484375 -0.734375 2.6875q-0.71875 1.203125 -1.984375 1.90625q-1.265625 0.6875 -2.859375 0.6875zm5.296875 -0.125q-0.53125 0 -0.875 -0.34375q-0.34375 -0.359375 -0.34375 -0.875l0 -10.703125q0 -0.5625 0.34375 -0.890625q0.34375 -0.34375 0.875 -0.34375q0.546875 0 0.875 0.34375q0.34375 0.328125 0.34375 0.890625l0 10.703125q0 0.515625 -0.34375 0.875q-0.328125 0.34375 -0.875 0.34375zm11.008575 0.09375q-1.75 0 -3.140625 -0.875q-1.390625 -0.875 -2.203125 -2.375q-0.796875 -1.5 -0.796875 -3.390625q0 -1.90625 0.875 -3.40625q0.875 -1.515625 2.375 -2.390625q1.5 -0.875 3.375 -0.875q1.875 0 3.359375 0.875q1.484375 0.875 2.359375 2.390625q0.890625 1.5 0.890625 3.40625l-0.9375 0q0 1.890625 -0.8125 3.390625q-0.796875 1.5 -2.1875 2.375q-1.390625 0.875 -3.15625 0.875zm0.484375 -2.15625q1.234375 0 2.1875 -0.578125q0.953125 -0.59375 1.5 -1.609375q0.5625 -1.03125 0.5625 -2.296875q0 -1.296875 -0.5625 -2.3125q-0.546875 -1.03125 -1.5 -1.609375q-0.953125 -0.59375 -2.1875 -0.59375q-1.203125 0 -2.171875 0.59375q-0.96875 0.578125 -1.53125 1.609375q-0.5625 1.015625 -0.5625 2.3125q0 1.265625 0.5625 2.296875q0.5625 1.015625 1.53125 1.609375q0.96875 0.578125 2.171875 0.578125zm5.375 2.09375q-0.53125 0 -0.875 -0.34375q-0.34375 -0.359375 -0.34375 -0.890625l0 -3.671875l0.453125 -2.546875l2.0 0.875l0 5.34375q0 0.53125 -0.359375 0.890625q-0.34375 0.34375 -0.875 0.34375zm9.653076 -0.03125q-1.203125 0 -2.171875 -0.609375q-0.953125 -0.609375 -1.5 -1.671875q-0.546875 -1.0625 -0.546875 -2.375l0 -11.453125q0 -0.515625 0.328125 -0.84375q0.34375 -0.34375 0.859375 -0.34375q0.53125 0 0.859375 0.34375q0.34375 0.328125 0.34375 0.84375l0 11.453125q0 0.953125 0.53125 1.609375q0.53125 0.640625 1.296875 0.640625l0.8125 0q0.4375 0 0.734375 0.34375q0.296875 0.328125 0.296875 0.859375q0 0.53125 -0.40625 0.875q-0.390625 0.328125 -1.0 0.328125l-0.4375 0zm-5.328125 -10.578125q-0.5 0 -0.8125 -0.28125q-0.3125 -0.296875 -0.3125 -0.734375q0 -0.484375 0.3125 -0.765625q0.3125 -0.28125 0.8125 -0.28125l5.546875 0q0.5 0 0.8125 0.28125q0.3125 0.28125 0.3125 0.765625q0 0.4375 -0.3125 0.734375q-0.3125 0.28125 -0.8125 0.28125l-5.546875 0zm11.639618 10.578125q-0.53125 0 -0.875 -0.34375q-0.34375 -0.359375 -0.34375 -0.875l0 -10.6875q0 -0.546875 0.34375 -0.875q0.34375 -0.34375 0.875 -0.34375q0.546875 0 0.875 0.34375q0.34375 0.328125 0.34375 0.875l0 10.6875q0 0.515625 -0.34375 0.875q-0.328125 0.34375 -0.875 0.34375zm0 -15.265625q-0.65625 0 -1.125 -0.46875q-0.46875 -0.46875 -0.46875 -1.109375q0 -0.65625 0.46875 -1.125q0.46875 -0.46875 1.125 -0.46875q0.640625 0 1.109375 0.46875q0.46875 0.46875 0.46875 1.125q0 0.640625 -0.46875 1.109375q-0.46875 0.46875 -1.109375 0.46875zm11.732361 15.359375q-1.9375 0 -3.4375 -0.84375q-1.484375 -0.859375 -2.34375 -2.359375q-0.84375 -1.5 -0.84375 -3.4375q0 -1.96875 0.84375 -3.46875q0.859375 -1.5 2.34375 -2.34375q1.5 -0.859375 3.4375 -0.859375q1.921875 0 3.40625 0.859375q1.5 0.84375 2.34375 2.34375q0.859375 1.5 0.859375 3.46875q0 1.9375 -0.84375 3.4375q-0.84375 1.5 -2.328125 2.359375q-1.484375 0.84375 -3.4375 0.84375zm0 -2.15625q1.25 0 2.203125 -0.578125q0.96875 -0.578125 1.5 -1.578125q0.546875 -1.015625 0.546875 -2.328125q0 -1.328125 -0.546875 -2.34375q-0.53125 -1.015625 -1.5 -1.59375q-0.953125 -0.578125 -2.203125 -0.578125q-1.25 0 -2.21875 0.578125q-0.953125 0.578125 -1.5 1.59375q-0.546875 1.015625 -0.546875 2.34375q0 1.3125 0.546875 2.328125q0.546875 1.0 1.5 1.578125q0.96875 0.578125 2.21875 0.578125zm21.340576 2.09375q-0.53125 0 -0.875 -0.34375q-0.34375 -0.359375 -0.34375 -0.890625l0 -5.90625q0 -1.359375 -0.515625 -2.21875q-0.5 -0.875 -1.359375 -1.296875q-0.84375 -0.421875 -1.953125 -0.421875q-1.0 0 -1.828125 0.421875q-0.8125 0.40625 -1.296875 1.09375q-0.46875 0.671875 -0.46875 1.5625l-1.515625 0q0 -1.515625 0.734375 -2.703125q0.734375 -1.1875 2.0 -1.875q1.28125 -0.703125 2.859375 -0.703125q1.65625 0 2.953125 0.71875q1.3125 0.703125 2.0625 2.078125q0.765625 1.359375 0.765625 3.34375l0 5.90625q0 0.53125 -0.34375 0.890625q-0.34375 0.34375 -0.875 0.34375zm-9.859375 0q-0.53125 0 -0.890625 -0.34375q-0.34375 -0.359375 -0.34375 -0.890625l0 -10.703125q0 -0.546875 0.34375 -0.875q0.359375 -0.34375 0.890625 -0.34375q0.546875 0 0.875 0.34375q0.34375 0.328125 0.34375 0.875l0 10.703125q0 0.53125 -0.34375 0.890625q-0.328125 0.34375 -0.875 0.34375z" fill-rule="nonzero"/><path fill="#ffffff" fill-opacity="0.7" d="m585.8819 52.475674l0 0c0 -3.9689903 3.2174683 -7.1864967 7.1864624 -7.1864967l327.98926 0c1.9059448 0 3.7338867 0.7571449 5.081604 2.1048775c1.3477173 1.3477287 2.1048584 3.175644 2.1048584 5.0816193l0 46.508892c0 3.9689941 -3.2174683 7.1865005 -7.1864624 7.1865005l-327.98926 0c-3.9689941 0 -7.1864624 -3.2175064 -7.1864624 -7.1865005z" fill-rule="evenodd"/><path stroke="#c8d5e1" stroke-width="2.0" stroke-linejoin="round" stroke-linecap="butt" d="m585.8819 52.475674l0 0c0 -3.9689903 3.2174683 -7.1864967 7.1864624 -7.1864967l327.98926 0c1.9059448 0 3.7338867 0.7571449 5.081604 2.1048775c1.3477173 1.3477287 2.1048584 3.175644 2.1048584 5.0816193l0 46.508892c0 3.9689941 -3.2174683 7.1865005 -7.1864624 7.1865005l-327.98926 0c-3.9689941 0 -7.1864624 -3.2175064 -7.1864624 -7.1865005z" fill-rule="evenodd"/><path fill="#000000" fill-opacity="0.0" d="m358.92914 99.96896l-278.92914 0.03150177" fill-rule="evenodd"/><path stroke="#073763" stroke-width="1.0" stroke-linejoin="round" stroke-linecap="butt" d="m358.92914 99.96896l-278.92914 0.03150177" fill-rule="evenodd"/><path fill="#000000" fill-opacity="0.0" d="m689.14496 45.288715l93.700806 0l0 32.31496l-93.700806 0z" fill-rule="evenodd"/><path fill="#595959" d="m708.59753 64.52872q-0.296875 0 -0.453125 -0.25q-0.15625 -0.265625 -0.03125 -0.5468788l2.984375 -7.15625q0.171875 -0.375 0.53125 -0.375q0.375 0 0.515625 0.375l3.0 7.171875q0.125 0.2968788 -0.03125 0.5468788q-0.15625 0.234375 -0.46875 0.234375q-0.15625 0 -0.296875 -0.09375q-0.140625 -0.09375 -0.203125 -0.25l-2.640625 -6.562504l0.296875 0l-2.6875 6.562504q-0.078125 0.171875 -0.21875 0.265625q-0.140625 0.078125 -0.296875 0.078125zm0.5625 -1.8281288l0.421875 -0.921875l4.1875 0l0.421875 0.921875l-5.03125 0zm8.705383 1.8125038q-0.34375 0 -0.515625 -0.34375l-2.265625 -4.765629q-0.078125 -0.1875 -0.015625 -0.359375q0.078125 -0.171875 0.28125 -0.265625q0.171875 -0.09375 0.359375 -0.03125q0.1875 0.0625 0.28125 0.234375l2.109375 4.5625l-0.5 0l2.078125 -4.5625q0.09375 -0.171875 0.296875 -0.234375q0.203125 -0.0625 0.40625 0.03125q0.1875 0.078125 0.25 0.265625q0.0625 0.171875 -0.015625 0.359375l-2.265625 4.765629q-0.15625 0.34375 -0.484375 0.34375zm6.079468 0.0625q-0.796875 0 -1.421875 -0.375q-0.609375 -0.3906288 -0.96875 -1.0468788q-0.34375 -0.671875 -0.34375 -1.53125q0 -0.875 0.375 -1.53125q0.390625 -0.671875 1.046875 -1.046875q0.65625 -0.390625 1.53125 -0.390625q0.84375 0 1.5 0.390625q0.671875 0.375 1.046875 1.046875q0.375 0.65625 0.375 1.53125l-0.625 0q0 0.859375 -0.328125 1.53125q-0.328125 0.65625 -0.890625 1.0468788q-0.5625 0.375 -1.296875 0.375zm0.1875 2.375q-0.75 0 -1.421875 -0.296875q-0.65625 -0.296875 -1.109375 -0.875q-0.140625 -0.1875 -0.109375 -0.375q0.046875 -0.1875 0.21875 -0.3125q0.1875 -0.125 0.390625 -0.09375q0.21875 0.046875 0.34375 0.21875q0.28125 0.375 0.71875 0.5625q0.4375 0.203125 1.0 0.203125q0.5 0 0.921875 -0.25q0.4375 -0.234375 0.6875 -0.71875q0.265625 -0.46875 0.265625 -1.1718788l0 -1.5l0.359375 -0.953125l0.6875 0.234375l0 2.296875q0 0.8437538 -0.375 1.5312538q-0.375 0.6875 -1.046875 1.09375q-0.65625 0.40625 -1.53125 0.40625zm0.03125 -3.3437538q0.546875 0 0.96875 -0.25q0.4375 -0.25 0.671875 -0.703125q0.234375 -0.453125 0.234375 -1.03125q0 -0.59375 -0.234375 -1.046875q-0.234375 -0.453125 -0.671875 -0.703125q-0.421875 -0.25 -0.96875 -0.25q-0.5625 0 -1.0 0.25q-0.421875 0.25 -0.671875 0.703125q-0.234375 0.453125 -0.234375 1.046875q0 0.578125 0.234375 1.03125q0.25 0.453125 0.671875 0.703125q0.4375 0.25 1.0 0.25zm4.849304 1.0937538q-0.296875 0 -0.515625 -0.21875q-0.21875 -0.21875 -0.21875 -0.5156288q0 -0.3125 0.21875 -0.53125q0.21875 -0.21875 0.515625 -0.21875q0.3125 0 0.515625 0.21875q0.21875 0.21875 0.21875 0.53125q0 0.2968788 -0.21875 0.5156288q-0.203125 0.21875 -0.515625 0.21875zm8.096008 -0.0625q-0.671875 0 -1.296875 -0.203125q-0.609375 -0.21875 -1.078125 -0.6093788q-0.453125 -0.390625 -0.671875 -0.890625q-0.109375 -0.21875 0 -0.40625q0.125 -0.1875 0.390625 -0.25q0.1875 -0.046875 0.375 0.0625q0.1875 0.09375 0.28125 0.296875q0.125 0.265625 0.421875 0.5q0.296875 0.21875 0.703125 0.359375q0.421875 0.140625 0.875 0.140625q0.515625 0 0.9375 -0.15625q0.4375 -0.171875 0.703125 -0.46875q0.265625 -0.3125 0.265625 -0.75q0 -0.5625 -0.4375 -1.015625q-0.4375 -0.453125 -1.453125 -0.5625q-1.328125 -0.125 -2.078125 -0.765625q-0.75 -0.65625 -0.75 -1.609375q0 -0.703125 0.390625 -1.1875q0.390625 -0.5 1.0625 -0.75q0.6875 -0.265625 1.515625 -0.265625q0.640625 0 1.125 0.1875q0.5 0.171875 0.859375 0.5q0.359375 0.3125 0.625 0.75q0.15625 0.234375 0.125 0.453125q-0.03125 0.203125 -0.203125 0.3125q-0.203125 0.140625 -0.4375 0.0625q-0.234375 -0.078125 -0.359375 -0.28125q-0.171875 -0.3125 -0.421875 -0.515625q-0.234375 -0.21875 -0.578125 -0.34375q-0.328125 -0.125 -0.765625 -0.125q-0.796875 0 -1.328125 0.3125q-0.53125 0.296875 -0.53125 0.921875q0 0.3125 0.15625 0.609375q0.171875 0.296875 0.609375 0.515625q0.453125 0.203125 1.28125 0.28125q1.265625 0.140625 1.96875 0.78125q0.71875 0.640625 0.71875 1.703125q0 0.609375 -0.25 1.0625q-0.25 0.4375 -0.671875 0.7500038q-0.421875 0.296875 -0.96875 0.453125q-0.53125 0.140625 -1.109375 0.140625zm5.972229 -0.109375q-0.46875 0 -0.828125 -0.25q-0.359375 -0.265625 -0.5625 -0.7031288q-0.203125 -0.4375 -0.203125 -1.015625l0 -5.828125q0 -0.234375 0.140625 -0.375q0.15625 -0.15625 0.390625 -0.15625q0.234375 0 0.375 0.15625q0.15625 0.140625 0.15625 0.375l0 5.828125q0 0.390625 0.140625 0.65625q0.15625 0.25 0.390625 0.25l0.265625 0q0.21875 0 0.34375 0.15625q0.140625 0.140625 0.140625 0.375q0 0.23437881 -0.203125 0.3906288q-0.203125 0.140625 -0.53125 0.140625l-0.015625 0zm4.236267 0.046875q-0.890625 0 -1.578125 -0.375q-0.6875 -0.3906288 -1.078125 -1.0468788q-0.390625 -0.671875 -0.390625 -1.53125q0 -0.875 0.359375 -1.53125q0.375 -0.671875 1.03125 -1.046875q0.65625 -0.390625 1.484375 -0.390625q0.84375 0 1.4375 0.375q0.59375 0.359375 0.90625 1.015625q0.3125 0.640625 0.3125 1.484375q0 0.203125 -0.140625 0.34375q-0.125 0.125 -0.34375 0.125l-4.296875 0l0 -0.859375l4.265625 0l-0.4375 0.296875q-0.015625 -0.53125 -0.21875 -0.953125q-0.203125 -0.421875 -0.578125 -0.65625q-0.359375 -0.25 -0.90625 -0.25q-0.59375 0 -1.03125 0.265625q-0.4375 0.265625 -0.65625 0.734375q-0.21875 0.453125 -0.21875 1.046875q0 0.578125 0.265625 1.046875q0.265625 0.453125 0.734375 0.71875q0.46875 0.265625 1.078125 0.265625q0.328125 0 0.671875 -0.125q0.34375 -0.125 0.5625 -0.28125q0.15625 -0.109375 0.34375 -0.109375q0.1875 -0.015625 0.328125 0.09375q0.171875 0.171875 0.1875 0.359375q0.015625 0.1875 -0.171875 0.328125q-0.359375 0.2968788 -0.90625 0.4843788q-0.53125 0.171875 -1.015625 0.171875zm6.404297 0q-0.890625 0 -1.578125 -0.375q-0.6875 -0.3906288 -1.078125 -1.0468788q-0.390625 -0.671875 -0.390625 -1.53125q0 -0.875 0.359375 -1.53125q0.375 -0.671875 1.03125 -1.046875q0.65625 -0.390625 1.484375 -0.390625q0.84375 0 1.4375 0.375q0.59375 0.359375 0.90625 1.015625q0.3125 0.640625 0.3125 1.484375q0 0.203125 -0.140625 0.34375q-0.125 0.125 -0.34375 0.125l-4.296875 0l0 -0.859375l4.265625 0l-0.4375 0.296875q-0.015625 -0.53125 -0.21875 -0.953125q-0.203125 -0.421875 -0.578125 -0.65625q-0.359375 -0.25 -0.90625 -0.25q-0.59375 0 -1.03125 0.265625q-0.4375 0.265625 -0.65625 0.734375q-0.21875 0.453125 -0.21875 1.046875q0 0.578125 0.265625 1.046875q0.265625 0.453125 0.734375 0.71875q0.46875 0.265625 1.078125 0.265625q0.328125 0 0.671875 -0.125q0.34375 -0.125 0.5625 -0.28125q0.15625 -0.109375 0.34375 -0.109375q0.1875 -0.015625 0.328125 0.09375q0.171875 0.171875 0.1875 0.359375q0.015625 0.1875 -0.171875 0.328125q-0.359375 0.2968788 -0.90625 0.4843788q-0.53125 0.171875 -1.015625 0.171875zm4.4144287 2.453125q-0.234375 0 -0.390625 -0.15625q-0.15625 -0.15625 -0.15625 -0.390625l0 -4.859379q0.015625 -0.84375 0.390625 -1.515625q0.390625 -0.671875 1.046875 -1.0625q0.671875 -0.390625 1.5 -0.390625q0.84375 0 1.5 0.390625q0.65625 0.390625 1.046875 1.0625q0.390625 0.671875 0.390625 1.515625q0 0.84375 -0.359375 1.515625q-0.359375 0.65625 -0.984375 1.0468788q-0.609375 0.390625 -1.375 0.390625q-0.640625 0 -1.171875 -0.265625q-0.515625 -0.265625 -0.890625 -0.7031288l0 2.8750038q0 0.234375 -0.15625 0.390625q-0.140625 0.15625 -0.390625 0.15625zm2.390625 -3.4218788q0.546875 0 0.96875 -0.25q0.421875 -0.265625 0.671875 -0.71875q0.25 -0.453125 0.25 -1.015625q0 -0.578125 -0.25 -1.03125q-0.25 -0.453125 -0.671875 -0.703125q-0.421875 -0.265625 -0.96875 -0.265625q-0.53125 0 -0.96875 0.265625q-0.421875 0.25 -0.671875 0.703125q-0.25 0.453125 -0.25 1.03125q0 0.5625 0.25 1.015625q0.25 0.453125 0.671875 0.71875q0.4375 0.25 0.96875 0.25z" fill-rule="nonzero"/><path fill="#000000" fill-opacity="0.0" d="m765.8498 45.288715l157.7638 0l0 32.31496l-157.7638 0z" fill-rule="evenodd"/><path fill="#595959" d="m800.2754 64.70059q-1.015625 0 -1.8125 -0.375q-0.78125 -0.3906288 -1.234375 -1.0468788q-0.4375 -0.671875 -0.4375 -1.546875l0 -4.96875q0 -0.25 0.15625 -0.40625q0.171875 -0.15625 0.40625 -0.15625q0.234375 0 0.390625 0.15625q0.15625 0.15625 0.15625 0.40625l0 4.96875q0 0.578125 0.296875 1.03125q0.3125 0.4375 0.84375 0.6875q0.546875 0.25 1.234375 0.25q0.671875 0 1.1875 -0.25q0.515625 -0.25 0.8125 -0.6875q0.296875 -0.453125 0.296875 -1.03125l0 -4.96875q0 -0.25 0.15625 -0.40625q0.15625 -0.15625 0.390625 -0.15625q0.25 0 0.390625 0.15625q0.15625 0.15625 0.15625 0.40625l0 4.96875q0 0.875 -0.4375 1.546875q-0.421875 0.65625 -1.1875 1.0468788q-0.765625 0.375 -1.765625 0.375zm10.332764 -0.15625q-0.234375 0 -0.390625 -0.15625q-0.140625 -0.15625 -0.140625 -0.3906288l0 -2.625q0 -0.609375 -0.234375 -0.984375q-0.21875 -0.390625 -0.59375 -0.578125q-0.375 -0.1875 -0.875 -0.1875q-0.4375 0 -0.8125 0.1875q-0.359375 0.171875 -0.578125 0.484375q-0.203125 0.296875 -0.203125 0.703125l-0.671875 0q0 -0.671875 0.328125 -1.203125q0.328125 -0.53125 0.890625 -0.828125q0.5625 -0.3125 1.265625 -0.3125q0.734375 0 1.3125 0.3125q0.578125 0.3125 0.90625 0.921875q0.34375 0.609375 0.34375 1.484375l0 2.625q0 0.23437881 -0.15625 0.3906288q-0.15625 0.15625 -0.390625 0.15625zm-4.375 0q-0.234375 0 -0.390625 -0.15625q-0.15625 -0.15625 -0.15625 -0.3906288l0 -4.75q0 -0.25 0.15625 -0.390625q0.15625 -0.15625 0.390625 -0.15625q0.25 0 0.390625 0.15625q0.15625 0.140625 0.15625 0.390625l0 4.75q0 0.23437881 -0.15625 0.3906288q-0.140625 0.15625 -0.390625 0.15625zm7.267639 -2.1406288q-0.234375 0 -0.390625 -0.140625q-0.15625 -0.15625 -0.15625 -0.40625l0 -5.109375q0 -0.25 0.15625 -0.390625q0.15625 -0.15625 0.390625 -0.15625q0.25 0 0.390625 0.15625q0.15625 0.140625 0.15625 0.390625l0 5.109375q0 0.25 -0.15625 0.40625q-0.140625 0.140625 -0.390625 0.140625zm4.375 2.1406288q-0.234375 0 -0.390625 -0.15625q-0.140625 -0.15625 -0.140625 -0.3906288l0 -2.625q0 -0.609375 -0.234375 -0.984375q-0.21875 -0.390625 -0.59375 -0.578125q-0.375 -0.1875 -0.875 -0.1875q-0.4375 0 -0.8125 0.1875q-0.359375 0.171875 -0.578125 0.484375q-0.203125 0.296875 -0.203125 0.703125l-0.671875 0q0 -0.671875 0.328125 -1.203125q0.328125 -0.53125 0.890625 -0.828125q0.5625 -0.3125 1.265625 -0.3125q0.734375 0 1.3125 0.3125q0.578125 0.3125 0.90625 0.921875q0.34375 0.609375 0.34375 1.484375l0 2.625q0 0.23437881 -0.15625 0.3906288q-0.15625 0.15625 -0.390625 0.15625zm-4.375 0q-0.234375 0 -0.390625 -0.15625q-0.15625 -0.15625 -0.15625 -0.3906288l0 -4.75q0 -0.25 0.15625 -0.390625q0.15625 -0.15625 0.390625 -0.15625q0.25 0 0.390625 0.15625q0.15625 0.140625 0.15625 0.390625l0 4.75q0 0.23437881 -0.15625 0.3906288q-0.140625 0.15625 -0.390625 0.15625zm9.481384 0.03125q-0.890625 0 -1.578125 -0.375q-0.6875 -0.3906288 -1.078125 -1.0468788q-0.390625 -0.671875 -0.390625 -1.53125q0 -0.875 0.359375 -1.53125q0.375 -0.671875 1.03125 -1.046875q0.65625 -0.390625 1.484375 -0.390625q0.84375 0 1.4375 0.375q0.59375 0.359375 0.90625 1.015625q0.3125 0.640625 0.3125 1.484375q0 0.203125 -0.140625 0.34375q-0.125 0.125 -0.34375 0.125l-4.296875 0l0 -0.859375l4.265625 0l-0.4375 0.296875q-0.015625 -0.53125 -0.21875 -0.953125q-0.203125 -0.421875 -0.578125 -0.65625q-0.359375 -0.25 -0.90625 -0.25q-0.59375 0 -1.03125 0.265625q-0.4375 0.265625 -0.65625 0.734375q-0.21875 0.453125 -0.21875 1.046875q0 0.578125 0.265625 1.046875q0.265625 0.453125 0.734375 0.71875q0.46875 0.265625 1.078125 0.265625q0.328125 0 0.671875 -0.125q0.34375 -0.125 0.5625 -0.28125q0.15625 -0.109375 0.34375 -0.109375q0.1875 -0.015625 0.328125 0.09375q0.171875 0.171875 0.1875 0.359375q0.015625 0.1875 -0.171875 0.328125q-0.359375 0.2968788 -0.90625 0.4843788q-0.53125 0.171875 -1.015625 0.171875zm6.091797 0q-0.78125 0 -1.40625 -0.390625q-0.609375 -0.3906288 -0.96875 -1.0468788q-0.359375 -0.671875 -0.359375 -1.515625q0 -0.84375 0.390625 -1.515625q0.390625 -0.671875 1.046875 -1.0625q0.671875 -0.390625 1.515625 -0.390625q0.828125 0 1.484375 0.390625q0.65625 0.390625 1.046875 1.0625q0.390625 0.671875 0.390625 1.515625l-0.421875 0q0 0.84375 -0.359375 1.515625q-0.34375 0.65625 -0.96875 1.0468788q-0.609375 0.390625 -1.390625 0.390625zm0.21875 -0.9687538q0.53125 0 0.953125 -0.25q0.4375 -0.265625 0.671875 -0.71875q0.25 -0.453125 0.25 -1.015625q0 -0.578125 -0.25 -1.03125q-0.234375 -0.453125 -0.671875 -0.703125q-0.421875 -0.265625 -0.953125 -0.265625q-0.546875 0 -0.984375 0.265625q-0.421875 0.25 -0.671875 0.703125q-0.25 0.453125 -0.25 1.03125q0 0.5625 0.25 1.015625q0.25 0.453125 0.671875 0.71875q0.4375 0.25 0.984375 0.25zm2.375 0.9375038q-0.234375 0 -0.390625 -0.15625q-0.140625 -0.15625 -0.140625 -0.3906288l0 -1.625l0.1875 -1.140625l0.890625 0.390625l0 2.375q0 0.23437881 -0.15625 0.3906288q-0.15625 0.15625 -0.390625 0.15625zm3.5524292 -0.015625q-0.46875 0 -0.828125 -0.25q-0.359375 -0.265625 -0.5625 -0.7031288q-0.203125 -0.4375 -0.203125 -1.015625l0 -5.828125q0 -0.234375 0.140625 -0.375q0.15625 -0.15625 0.390625 -0.15625q0.234375 0 0.375 0.15625q0.15625 0.140625 0.15625 0.375l0 5.828125q0 0.390625 0.140625 0.65625q0.15625 0.25 0.390625 0.25l0.265625 0q0.21875 0 0.34375 0.15625q0.140625 0.140625 0.140625 0.375q0 0.23437881 -0.203125 0.3906288q-0.203125 0.140625 -0.53125 0.140625l-0.015625 0zm3.9312744 0q-0.53125 0 -0.96875 -0.265625q-0.421875 -0.2812538 -0.671875 -0.7500038q-0.234375 -0.46875 -0.234375 -1.046875l0 -5.09375q0 -0.234375 0.140625 -0.375q0.15625 -0.15625 0.390625 -0.15625q0.234375 0 0.375 0.15625q0.15625 0.140625 0.15625 0.375l0 5.09375q0 0.421875 0.234375 0.71875q0.234375 0.28125 0.578125 0.28125l0.359375 0q0.203125 0 0.328125 0.15625q0.140625 0.140625 0.140625 0.375q0 0.23437881 -0.1875 0.3906288q-0.171875 0.140625 -0.453125 0.140625l-0.1875 0zm-2.359375 -4.703129q-0.234375 0 -0.375 -0.125q-0.125 -0.125 -0.125 -0.3125q0 -0.21875 0.125 -0.34375q0.140625 -0.125 0.375 -0.125l2.453125 0q0.234375 0 0.359375 0.125q0.140625 0.125 0.140625 0.34375q0 0.1875 -0.140625 0.3125q-0.125 0.125 -0.359375 0.125l-2.453125 0zm5.0544434 2.578125q-0.234375 0 -0.390625 -0.140625q-0.15625 -0.15625 -0.15625 -0.40625l0 -5.109375q0 -0.25 0.15625 -0.390625q0.15625 -0.15625 0.390625 -0.15625q0.25 0 0.390625 0.15625q0.15625 0.140625 0.15625 0.390625l0 5.109375q0 0.25 -0.15625 0.40625q-0.140625 0.140625 -0.390625 0.140625zm4.375 2.1406288q-0.234375 0 -0.390625 -0.15625q-0.140625 -0.15625 -0.140625 -0.3906288l0 -2.625q0 -0.609375 -0.234375 -0.984375q-0.21875 -0.390625 -0.59375 -0.578125q-0.375 -0.1875 -0.875 -0.1875q-0.4375 0 -0.8125 0.1875q-0.359375 0.171875 -0.578125 0.484375q-0.203125 0.296875 -0.203125 0.703125l-0.671875 0q0 -0.671875 0.328125 -1.203125q0.328125 -0.53125 0.890625 -0.828125q0.5625 -0.3125 1.265625 -0.3125q0.734375 0 1.3125 0.3125q0.578125 0.3125 0.90625 0.921875q0.34375 0.609375 0.34375 1.484375l0 2.625q0 0.23437881 -0.15625 0.3906288q-0.15625 0.15625 -0.390625 0.15625zm-4.375 0q-0.234375 0 -0.390625 -0.15625q-0.15625 -0.15625 -0.15625 -0.3906288l0 -4.75q0 -0.25 0.15625 -0.390625q0.15625 -0.15625 0.390625 -0.15625q0.25 0 0.390625 0.15625q0.15625 0.140625 0.15625 0.390625l0 4.75q0 0.23437881 -0.15625 0.3906288q-0.140625 0.15625 -0.390625 0.15625zm7.7782593 2.546875q-0.109375 0 -0.25 -0.0625q-0.46875 -0.21875 -0.265625 -0.671875l3.25 -7.343754q0.21875 -0.453125 0.671875 -0.265625q0.484375 0.203125 0.28125 0.671875l-3.265625 7.343754q-0.125 0.328125 -0.421875 0.328125zm1.265625 -2.796875q-0.203125 0.078125 -0.390625 0.015625q-0.171875 -0.0625 -0.28125 -0.265625l-2.4375 -4.640629q-0.109375 -0.203125 -0.03125 -0.390625q0.09375 -0.1875 0.296875 -0.265625q0.203125 -0.09375 0.375 -0.015625q0.1875 0.0625 0.28125 0.265625l2.328125 4.640625q0.109375 0.203125 0.078125 0.3906288q-0.015625 0.1875 -0.21875 0.265625zm7.225464 0.234375q-0.234375 0 -0.40625 -0.15625q-0.15625 -0.15625 -0.15625 -0.3906288l0 -7.21875q0 -0.25 0.15625 -0.40625q0.171875 -0.15625 0.40625 -0.15625q0.234375 0 0.390625 0.15625q0.15625 0.15625 0.15625 0.40625l0 3.0625l4.953125 0l0 -3.0625q0 -0.25 0.15625 -0.40625q0.15625 -0.15625 0.390625 -0.15625q0.25 0 0.390625 0.15625q0.15625 0.15625 0.15625 0.40625l0 7.21875q0 0.23437881 -0.15625 0.3906288q-0.140625 0.15625 -0.390625 0.15625q-0.234375 0 -0.390625 -0.15625q-0.15625 -0.15625 -0.15625 -0.3906288l0 -3.1875l-4.953125 0l0 3.1875q0 0.23437881 -0.15625 0.3906288q-0.15625 0.15625 -0.390625 0.15625zm11.047363 0.046875q-0.78125 0 -1.40625 -0.390625q-0.609375 -0.3906288 -0.96875 -1.0468788q-0.359375 -0.671875 -0.359375 -1.515625q0 -0.84375 0.390625 -1.515625q0.390625 -0.671875 1.046875 -1.0625q0.671875 -0.390625 1.515625 -0.390625q0.828125 0 1.484375 0.390625q0.65625 0.390625 1.046875 1.0625q0.390625 0.671875 0.390625 1.515625l-0.421875 0q0 0.84375 -0.359375 1.515625q-0.34375 0.65625 -0.96875 1.0468788q-0.609375 0.390625 -1.390625 0.390625zm0.21875 -0.9687538q0.53125 0 0.953125 -0.25q0.4375 -0.265625 0.671875 -0.71875q0.25 -0.453125 0.25 -1.015625q0 -0.578125 -0.25 -1.03125q-0.234375 -0.453125 -0.671875 -0.703125q-0.421875 -0.265625 -0.953125 -0.265625q-0.546875 0 -0.984375 0.265625q-0.421875 0.25 -0.671875 0.703125q-0.25 0.453125 -0.25 1.03125q0 0.5625 0.25 1.015625q0.25 0.453125 0.671875 0.71875q0.4375 0.25 0.984375 0.25zm2.375 0.9375038q-0.234375 0 -0.390625 -0.15625q-0.140625 -0.15625 -0.140625 -0.3906288l0 -1.625l0.1875 -1.140625l0.890625 0.390625l0 2.375q0 0.23437881 -0.15625 0.3906288q-0.15625 0.15625 -0.390625 0.15625zm5.099243 0.03125q-0.828125 0 -1.5 -0.390625q-0.65625 -0.3906288 -1.046875 -1.0625038q-0.375 -0.671875 -0.390625 -1.515625l0 -4.859375q0 -0.25 0.15625 -0.390625q0.15625 -0.15625 0.390625 -0.15625q0.25 0 0.390625 0.15625q0.15625 0.140625 0.15625 0.390625l0 2.875q0.375 -0.4375 0.890625 -0.703125q0.53125 -0.265625 1.171875 -0.265625q0.765625 0 1.375 0.390625q0.625 0.390625 0.984375 1.0625q0.359375 0.65625 0.359375 1.5q0 0.84375 -0.390625 1.515625q-0.390625 0.671875 -1.046875 1.0625038q-0.65625 0.390625 -1.5 0.390625zm0 -0.9687538q0.546875 0 0.96875 -0.25q0.421875 -0.265625 0.671875 -0.71875q0.25 -0.46875 0.25 -1.03125q0 -0.578125 -0.25 -1.015625q-0.25 -0.453125 -0.671875 -0.703125q-0.421875 -0.265625 -0.96875 -0.265625q-0.53125 0 -0.96875 0.265625q-0.421875 0.25 -0.671875 0.703125q-0.25 0.4375 -0.25 1.015625q0 0.5625 0.25 1.03125q0.25 0.453125 0.671875 0.71875q0.4375 0.25 0.96875 0.25zm5.210205 0.9218788q-0.234375 0 -0.390625 -0.15625q-0.15625 -0.15625 -0.15625 -0.3906288l0 -4.734375q0 -0.25 0.15625 -0.390625q0.15625 -0.15625 0.390625 -0.15625q0.25 0 0.390625 0.15625q0.15625 0.140625 0.15625 0.390625l0 4.734375q0 0.23437881 -0.15625 0.3906288q-0.140625 0.15625 -0.390625 0.15625zm0 -6.781254q-0.28125 0 -0.5 -0.203125q-0.203125 -0.203125 -0.203125 -0.5q0 -0.28125 0.203125 -0.484375q0.21875 -0.21875 0.5 -0.21875q0.296875 0 0.5 0.21875q0.203125 0.203125 0.203125 0.484375q0 0.296875 -0.203125 0.5q-0.203125 0.203125 -0.5 0.203125zm4.6869507 6.781254q-0.53125 0 -0.96875 -0.265625q-0.421875 -0.2812538 -0.671875 -0.7500038q-0.234375 -0.46875 -0.234375 -1.046875l0 -5.09375q0 -0.234375 0.140625 -0.375q0.15625 -0.15625 0.390625 -0.15625q0.234375 0 0.375 0.15625q0.15625 0.140625 0.15625 0.375l0 5.09375q0 0.421875 0.234375 0.71875q0.234375 0.28125 0.578125 0.28125l0.359375 0q0.203125 0 0.328125 0.15625q0.140625 0.140625 0.140625 0.375q0 0.23437881 -0.1875 0.3906288q-0.171875 0.140625 -0.453125 0.140625l-0.1875 0zm-2.359375 -4.703129q-0.234375 0 -0.375 -0.125q-0.125 -0.125 -0.125 -0.3125q0 -0.21875 0.125 -0.34375q0.140625 -0.125 0.375 -0.125l2.453125 0q0.234375 0 0.359375 0.125q0.140625 0.125 0.140625 0.34375q0 0.1875 -0.140625 0.3125q-0.125 0.125 -0.359375 0.125l-2.453125 0zm6.6325684 4.750004q-0.75 0 -1.390625 -0.234375q-0.625 -0.234375 -0.96875 -0.5781288q-0.171875 -0.171875 -0.140625 -0.390625q0.03125 -0.21875 0.203125 -0.359375q0.21875 -0.171875 0.421875 -0.140625q0.21875 0.03125 0.359375 0.1875q0.1875 0.203125 0.578125 0.375q0.40625 0.171875 0.890625 0.171875q0.625 0 0.953125 -0.203125q0.328125 -0.203125 0.328125 -0.515625q0.015625 -0.3125 -0.296875 -0.546875q-0.3125 -0.234375 -1.15625 -0.390625q-1.0625 -0.21875 -1.546875 -0.640625q-0.484375 -0.421875 -0.484375 -1.046875q0 -0.546875 0.3125 -0.890625q0.3125 -0.359375 0.8125 -0.53125q0.515625 -0.1875 1.046875 -0.1875q0.703125 0 1.25 0.234375q0.546875 0.21875 0.859375 0.609375q0.15625 0.171875 0.140625 0.359375q0 0.1875 -0.171875 0.3125q-0.171875 0.125 -0.40625 0.078125q-0.234375 -0.046875 -0.40625 -0.1875q-0.265625 -0.265625 -0.578125 -0.359375q-0.296875 -0.09375 -0.703125 -0.09375q-0.46875 0 -0.796875 0.15625q-0.328125 0.15625 -0.328125 0.46875q0 0.1875 0.09375 0.34375q0.109375 0.15625 0.40625 0.28125q0.3125 0.125 0.875 0.234375q0.796875 0.171875 1.265625 0.421875q0.46875 0.234375 0.671875 0.5625q0.203125 0.328125 0.203125 0.75q0 0.484375 -0.265625 0.890625q-0.265625 0.3906288 -0.765625 0.6250038q-0.5 0.234375 -1.265625 0.234375z" fill-rule="nonzero"/><path fill="#000000" fill-opacity="0.0" d="m599.4979 45.288715l93.700806 0l0 32.31496l-93.700806 0z" fill-rule="evenodd"/><path fill="#595959" d="m618.95044 64.52872q-0.296875 0 -0.453125 -0.25q-0.15625 -0.265625 -0.03125 -0.5468788l2.984375 -7.15625q0.171875 -0.375 0.53125 -0.375q0.375 0 0.515625 0.375l3.0 7.171875q0.125 0.2968788 -0.03125 0.5468788q-0.15625 0.234375 -0.46875 0.234375q-0.15625 0 -0.296875 -0.09375q-0.140625 -0.09375 -0.203125 -0.25l-2.640625 -6.562504l0.296875 0l-2.6875 6.562504q-0.078125 0.171875 -0.21875 0.265625q-0.140625 0.078125 -0.296875 0.078125zm0.5625 -1.8281288l0.421875 -0.921875l4.1875 0l0.421875 0.921875l-5.03125 0zm8.705383 1.8125038q-0.34375 0 -0.515625 -0.34375l-2.265625 -4.765629q-0.078125 -0.1875 -0.015625 -0.359375q0.078125 -0.171875 0.28125 -0.265625q0.171875 -0.09375 0.359375 -0.03125q0.1875 0.0625 0.28125 0.234375l2.109375 4.5625l-0.5 0l2.078125 -4.5625q0.09375 -0.171875 0.296875 -0.234375q0.203125 -0.0625 0.40625 0.03125q0.1875 0.078125 0.25 0.265625q0.0625 0.171875 -0.015625 0.359375l-2.265625 4.765629q-0.15625 0.34375 -0.484375 0.34375zm6.079529 0.0625q-0.796875 0 -1.421875 -0.375q-0.609375 -0.3906288 -0.96875 -1.0468788q-0.34375 -0.671875 -0.34375 -1.53125q0 -0.875 0.375 -1.53125q0.390625 -0.671875 1.046875 -1.046875q0.65625 -0.390625 1.53125 -0.390625q0.84375 0 1.5 0.390625q0.671875 0.375 1.046875 1.046875q0.375 0.65625 0.375 1.53125l-0.625 0q0 0.859375 -0.328125 1.53125q-0.328125 0.65625 -0.890625 1.0468788q-0.5625 0.375 -1.296875 0.375zm0.1875 2.375q-0.75 0 -1.421875 -0.296875q-0.65625 -0.296875 -1.109375 -0.875q-0.140625 -0.1875 -0.109375 -0.375q0.046875 -0.1875 0.21875 -0.3125q0.1875 -0.125 0.390625 -0.09375q0.21875 0.046875 0.34375 0.21875q0.28125 0.375 0.71875 0.5625q0.4375 0.203125 1.0 0.203125q0.5 0 0.921875 -0.25q0.4375 -0.234375 0.6875 -0.71875q0.265625 -0.46875 0.265625 -1.1718788l0 -1.5l0.359375 -0.953125l0.6875 0.234375l0 2.296875q0 0.8437538 -0.375 1.5312538q-0.375 0.6875 -1.046875 1.09375q-0.65625 0.40625 -1.53125 0.40625zm0.03125 -3.3437538q0.546875 0 0.96875 -0.25q0.4375 -0.25 0.671875 -0.703125q0.234375 -0.453125 0.234375 -1.03125q0 -0.59375 -0.234375 -1.046875q-0.234375 -0.453125 -0.671875 -0.703125q-0.421875 -0.25 -0.96875 -0.25q-0.5625 0 -1.0 0.25q-0.421875 0.25 -0.671875 0.703125q-0.234375 0.453125 -0.234375 1.046875q0 0.578125 0.234375 1.03125q0.25 0.453125 0.671875 0.703125q0.4375 0.25 1.0 0.25zm4.849243 1.0937538q-0.296875 0 -0.515625 -0.21875q-0.21875 -0.21875 -0.21875 -0.5156288q0 -0.3125 0.21875 -0.53125q0.21875 -0.21875 0.515625 -0.21875q0.3125 0 0.515625 0.21875q0.21875 0.21875 0.21875 0.53125q0 0.2968788 -0.21875 0.5156288q-0.203125 0.21875 -0.515625 0.21875zm8.096069 -0.0625q-0.671875 0 -1.296875 -0.203125q-0.609375 -0.21875 -1.078125 -0.6093788q-0.453125 -0.390625 -0.671875 -0.890625q-0.109375 -0.21875 0 -0.40625q0.125 -0.1875 0.390625 -0.25q0.1875 -0.046875 0.375 0.0625q0.1875 0.09375 0.28125 0.296875q0.125 0.265625 0.421875 0.5q0.296875 0.21875 0.703125 0.359375q0.421875 0.140625 0.875 0.140625q0.515625 0 0.9375 -0.15625q0.4375 -0.171875 0.703125 -0.46875q0.265625 -0.3125 0.265625 -0.75q0 -0.5625 -0.4375 -1.015625q-0.4375 -0.453125 -1.453125 -0.5625q-1.328125 -0.125 -2.078125 -0.765625q-0.75 -0.65625 -0.75 -1.609375q0 -0.703125 0.390625 -1.1875q0.390625 -0.5 1.0625 -0.75q0.6875 -0.265625 1.515625 -0.265625q0.640625 0 1.125 0.1875q0.5 0.171875 0.859375 0.5q0.359375 0.3125 0.625 0.75q0.15625 0.234375 0.125 0.453125q-0.03125 0.203125 -0.203125 0.3125q-0.203125 0.140625 -0.4375 0.0625q-0.234375 -0.078125 -0.359375 -0.28125q-0.171875 -0.3125 -0.421875 -0.515625q-0.234375 -0.21875 -0.578125 -0.34375q-0.328125 -0.125 -0.765625 -0.125q-0.796875 0 -1.328125 0.3125q-0.53125 0.296875 -0.53125 0.921875q0 0.3125 0.15625 0.609375q0.171875 0.296875 0.609375 0.515625q0.453125 0.203125 1.28125 0.28125q1.265625 0.140625 1.96875 0.78125q0.71875 0.640625 0.71875 1.703125q0 0.609375 -0.25 1.0625q-0.25 0.4375 -0.671875 0.7500038q-0.421875 0.296875 -0.96875 0.453125q-0.53125 0.140625 -1.109375 0.140625zm5.972168 -0.109375q-0.46875 0 -0.828125 -0.25q-0.359375 -0.265625 -0.5625 -0.7031288q-0.203125 -0.4375 -0.203125 -1.015625l0 -5.828125q0 -0.234375 0.140625 -0.375q0.15625 -0.15625 0.390625 -0.15625q0.234375 0 0.375 0.15625q0.15625 0.140625 0.15625 0.375l0 5.828125q0 0.390625 0.140625 0.65625q0.15625 0.25 0.390625 0.25l0.265625 0q0.21875 0 0.34375 0.15625q0.140625 0.140625 0.140625 0.375q0 0.23437881 -0.203125 0.3906288q-0.203125 0.140625 -0.53125 0.140625l-0.015625 0zm4.236328 0.046875q-0.890625 0 -1.578125 -0.375q-0.6875 -0.3906288 -1.078125 -1.0468788q-0.390625 -0.671875 -0.390625 -1.53125q0 -0.875 0.359375 -1.53125q0.375 -0.671875 1.03125 -1.046875q0.65625 -0.390625 1.484375 -0.390625q0.84375 0 1.4375 0.375q0.59375 0.359375 0.90625 1.015625q0.3125 0.640625 0.3125 1.484375q0 0.203125 -0.140625 0.34375q-0.125 0.125 -0.34375 0.125l-4.296875 0l0 -0.859375l4.265625 0l-0.4375 0.296875q-0.015625 -0.53125 -0.21875 -0.953125q-0.203125 -0.421875 -0.578125 -0.65625q-0.359375 -0.25 -0.90625 -0.25q-0.59375 0 -1.03125 0.265625q-0.4375 0.265625 -0.65625 0.734375q-0.21875 0.453125 -0.21875 1.046875q0 0.578125 0.265625 1.046875q0.265625 0.453125 0.734375 0.71875q0.46875 0.265625 1.078125 0.265625q0.328125 0 0.671875 -0.125q0.34375 -0.125 0.5625 -0.28125q0.15625 -0.109375 0.34375 -0.109375q0.1875 -0.015625 0.328125 0.09375q0.171875 0.171875 0.1875 0.359375q0.015625 0.1875 -0.171875 0.328125q-0.359375 0.2968788 -0.90625 0.4843788q-0.53125 0.171875 -1.015625 0.171875zm6.404236 0q-0.890625 0 -1.578125 -0.375q-0.6875 -0.3906288 -1.078125 -1.0468788q-0.390625 -0.671875 -0.390625 -1.53125q0 -0.875 0.359375 -1.53125q0.375 -0.671875 1.03125 -1.046875q0.65625 -0.390625 1.484375 -0.390625q0.84375 0 1.4375 0.375q0.59375 0.359375 0.90625 1.015625q0.3125 0.640625 0.3125 1.484375q0 0.203125 -0.140625 0.34375q-0.125 0.125 -0.34375 0.125l-4.296875 0l0 -0.859375l4.265625 0l-0.4375 0.296875q-0.015625 -0.53125 -0.21875 -0.953125q-0.203125 -0.421875 -0.578125 -0.65625q-0.359375 -0.25 -0.90625 -0.25q-0.59375 0 -1.03125 0.265625q-0.4375 0.265625 -0.65625 0.734375q-0.21875 0.453125 -0.21875 1.046875q0 0.578125 0.265625 1.046875q0.265625 0.453125 0.734375 0.71875q0.46875 0.265625 1.078125 0.265625q0.328125 0 0.671875 -0.125q0.34375 -0.125 0.5625 -0.28125q0.15625 -0.109375 0.34375 -0.109375q0.1875 -0.015625 0.328125 0.09375q0.171875 0.171875 0.1875 0.359375q0.015625 0.1875 -0.171875 0.328125q-0.359375 0.2968788 -0.90625 0.4843788q-0.53125 0.171875 -1.015625 0.171875zm4.4144897 2.453125q-0.234375 0 -0.390625 -0.15625q-0.15625 -0.15625 -0.15625 -0.390625l0 -4.859379q0.015625 -0.84375 0.390625 -1.515625q0.390625 -0.671875 1.046875 -1.0625q0.671875 -0.390625 1.5 -0.390625q0.84375 0 1.5 0.390625q0.65625 0.390625 1.046875 1.0625q0.390625 0.671875 0.390625 1.515625q0 0.84375 -0.359375 1.515625q-0.359375 0.65625 -0.984375 1.0468788q-0.609375 0.390625 -1.375 0.390625q-0.640625 0 -1.171875 -0.265625q-0.515625 -0.265625 -0.890625 -0.7031288l0 2.8750038q0 0.234375 -0.15625 0.390625q-0.140625 0.15625 -0.390625 0.15625zm2.390625 -3.4218788q0.546875 0 0.96875 -0.25q0.421875 -0.265625 0.671875 -0.71875q0.25 -0.453125 0.25 -1.015625q0 -0.578125 -0.25 -1.03125q-0.25 -0.453125 -0.671875 -0.703125q-0.421875 -0.265625 -0.96875 -0.265625q-0.53125 0 -0.96875 0.265625q-0.421875 0.25 -0.671875 0.703125q-0.25 0.453125 -0.25 1.03125q0 0.5625 0.25 1.015625q0.25 0.453125 0.671875 0.71875q0.4375 0.25 0.96875 0.25z" fill-rule="nonzero"/><path fill="#000000" fill-opacity="0.0" d="m410.46194 127.97098l517.7953 0l0 38.771652l-517.7953 0z" fill-rule="evenodd"/><path fill="#595959" d="m606.31696 152.33098q-0.359375 0 -0.609375 -0.234375q-0.234375 -0.25 -0.234375 -0.59375l0 -10.828125q0 -0.375 0.234375 -0.609375q0.25 -0.234375 0.609375 -0.234375q0.46875 0 0.734375 0.453125l5.0 10.03125l-0.515625 0l4.890625 -10.03125q0.25 -0.453125 0.734375 -0.453125q0.34375 0 0.578125 0.234375q0.25 0.234375 0.25 0.609375l0 10.828125q0 0.34375 -0.25 0.59375q-0.25 0.234375 -0.578125 0.234375q-0.359375 0 -0.59375 -0.234375q-0.234375 -0.25 -0.234375 -0.59375l0 -8.53125l0.3125 -0.078125l-4.1875 8.546875q-0.28125 0.40625 -0.71875 0.40625q-0.53125 0 -0.765625 -0.484375l-4.15625 -8.3125l0.328125 -0.078125l0 8.53125q0 0.34375 -0.25 0.59375q-0.234375 0.234375 -0.578125 0.234375zm18.680786 0.0625q-1.296875 0 -2.296875 -0.5625q-0.984375 -0.578125 -1.5625 -1.578125q-0.5625 -1.0 -0.5625 -2.296875q0 -1.3125 0.5625 -2.3125q0.578125 -1.0 1.5625 -1.5625q1.0 -0.5625 2.296875 -0.5625q1.28125 0 2.265625 0.5625q1.0 0.5625 1.5625 1.5625q0.578125 1.0 0.578125 2.3125q0 1.296875 -0.5625 2.296875q-0.5625 1.0 -1.5625 1.578125q-0.984375 0.5625 -2.28125 0.5625zm0 -1.4375q0.828125 0 1.46875 -0.375q0.640625 -0.390625 1.0 -1.0625q0.359375 -0.671875 0.359375 -1.5625q0 -0.875 -0.359375 -1.546875q-0.359375 -0.6875 -1.0 -1.0625q-0.640625 -0.390625 -1.46875 -0.390625q-0.828125 0 -1.46875 0.390625q-0.640625 0.375 -1.015625 1.0625q-0.359375 0.671875 -0.359375 1.546875q0 0.890625 0.359375 1.5625q0.375 0.671875 1.015625 1.0625q0.640625 0.375 1.46875 0.375zm10.799988 1.4375q-1.296875 0 -2.296875 -0.5625q-0.984375 -0.578125 -1.5625 -1.578125q-0.5625 -1.0 -0.5625 -2.296875q0 -1.3125 0.5625 -2.3125q0.578125 -1.0 1.5625 -1.5625q1.0 -0.5625 2.296875 -0.5625q1.28125 0 2.265625 0.5625q1.0 0.5625 1.5625 1.5625q0.578125 1.0 0.578125 2.3125q0 1.296875 -0.5625 2.296875q-0.5625 1.0 -1.5625 1.578125q-0.984375 0.5625 -2.28125 0.5625zm0 -1.4375q0.828125 0 1.46875 -0.375q0.640625 -0.390625 1.0 -1.0625q0.359375 -0.671875 0.359375 -1.5625q0 -0.875 -0.359375 -1.546875q-0.359375 -0.6875 -1.0 -1.0625q-0.640625 -0.390625 -1.46875 -0.390625q-0.828125 0 -1.46875 0.390625q-0.640625 0.375 -1.015625 1.0625q-0.359375 0.671875 -0.359375 1.546875q0 0.890625 0.359375 1.5625q0.375 0.671875 1.015625 1.0625q0.640625 0.375 1.46875 0.375zm10.800049 1.4375q-1.25 0 -2.25 -0.578125q-1.0 -0.59375 -1.59375 -1.59375q-0.578125 -1.015625 -0.578125 -2.28125q0 -1.25 0.53125 -2.25q0.546875 -1.0 1.46875 -1.578125q0.9375 -0.59375 2.109375 -0.59375q0.9375 0 1.734375 0.390625q0.796875 0.390625 1.34375 1.0625l0 -4.328125q0 -0.359375 0.234375 -0.578125q0.234375 -0.234375 0.578125 -0.234375q0.375 0 0.59375 0.234375q0.234375 0.21875 0.234375 0.578125l0 7.296875q0 1.265625 -0.59375 2.28125q-0.578125 1.0 -1.578125 1.59375q-0.984375 0.578125 -2.234375 0.578125zm0 -1.4375q0.8125 0 1.453125 -0.390625q0.640625 -0.390625 1.0 -1.078125q0.375 -0.6875 0.375 -1.546875q0 -0.859375 -0.375 -1.53125q-0.359375 -0.671875 -1.0 -1.0625q-0.640625 -0.390625 -1.453125 -0.390625q-0.796875 0 -1.453125 0.390625q-0.640625 0.390625 -1.015625 1.0625q-0.375 0.671875 -0.375 1.53125q0 0.859375 0.375 1.546875q0.375 0.6875 1.015625 1.078125q0.65625 0.390625 1.453125 0.390625zm16.092285 1.53125q-1.015625 0 -1.953125 -0.3125q-0.921875 -0.328125 -1.609375 -0.890625q-0.6875 -0.578125 -1.015625 -1.34375q-0.15625 -0.328125 0.015625 -0.609375q0.171875 -0.296875 0.5625 -0.375q0.296875 -0.0625 0.578125 0.09375q0.28125 0.140625 0.421875 0.453125q0.1875 0.390625 0.625 0.734375q0.4375 0.328125 1.0625 0.546875q0.625 0.203125 1.3125 0.203125q0.78125 0 1.421875 -0.234375q0.640625 -0.25 1.046875 -0.703125q0.40625 -0.453125 0.40625 -1.125q0 -0.84375 -0.671875 -1.515625q-0.65625 -0.671875 -2.1875 -0.84375q-1.984375 -0.1875 -3.125 -1.15625q-1.125 -0.984375 -1.125 -2.421875q0 -1.0625 0.59375 -1.796875q0.59375 -0.734375 1.609375 -1.109375q1.015625 -0.390625 2.265625 -0.390625q0.96875 0 1.6875 0.28125q0.734375 0.265625 1.28125 0.75q0.546875 0.46875 0.95306396 1.125q0.21875 0.359375 0.171875 0.671875q-0.03125 0.3125 -0.3125 0.484375q-0.29681396 0.1875 -0.65618896 0.078125q-0.34375 -0.109375 -0.515625 -0.40625q-0.265625 -0.46875 -0.640625 -0.78125q-0.359375 -0.328125 -0.859375 -0.515625q-0.484375 -0.1875 -1.15625 -0.1875q-1.1875 -0.015625 -2.0 0.453125q-0.796875 0.453125 -0.796875 1.390625q0 0.484375 0.25 0.921875q0.25 0.4375 0.90625 0.765625q0.671875 0.3125 1.921875 0.4375q1.90625 0.203125 2.96875 1.171875q1.062439 0.953125 1.062439 2.546875q0 0.90625 -0.375 1.578125q-0.37493896 0.671875 -1.015564 1.140625q-0.625 0.453125 -1.4375 0.671875q-0.796875 0.21875 -1.671875 0.21875zm10.070496 -0.15625q-0.796875 0 -1.4375 -0.40625q-0.640625 -0.40625 -1.015625 -1.109375q-0.359375 -0.703125 -0.359375 -1.59375l0 -7.625q0 -0.359375 0.21875 -0.578125q0.21875 -0.21875 0.578125 -0.21875q0.34375 0 0.5625 0.21875q0.234375 0.21875 0.234375 0.578125l0 7.625q0 0.640625 0.34375 1.078125q0.359375 0.4375 0.875 0.4375l0.546875 0q0.28125 0 0.484375 0.21875q0.203125 0.21875 0.203125 0.578125q0 0.34375 -0.265625 0.578125q-0.265625 0.21875 -0.6875 0.21875l-0.28125 0zm-3.546875 -7.0625q-0.34375 0 -0.5625 -0.1875q-0.203125 -0.1875 -0.203125 -0.484375q0 -0.3125 0.203125 -0.5q0.21875 -0.203125 0.5625 -0.203125l3.6875 0q0.34375 0 0.546875 0.203125q0.203125 0.1875 0.203125 0.5q0 0.296875 -0.203125 0.484375q-0.203125 0.1875 -0.546875 0.1875l-3.6875 0zm10.431641 7.125q-1.171875 0 -2.109375 -0.578125q-0.921875 -0.59375 -1.46875 -1.59375q-0.53125 -1.0 -0.53125 -2.265625q0 -1.25 0.578125 -2.25q0.59375 -1.015625 1.59375 -1.59375q1.0 -0.59375 2.25 -0.59375q1.25 0 2.234375 0.59375q1.0 0.578125 1.578125 1.59375q0.59375 1.0 0.59375 2.25l-0.625 0q0 1.265625 -0.546875 2.265625q-0.53125 1.0 -1.46875 1.59375q-0.921875 0.578125 -2.078125 0.578125zm0.3125 -1.4375q0.8125 0 1.453125 -0.390625q0.640625 -0.390625 1.0 -1.0625q0.375 -0.6875 0.375 -1.546875q0 -0.859375 -0.375 -1.53125q-0.359375 -0.6875 -1.0 -1.078125q-0.640625 -0.390625 -1.453125 -0.390625q-0.796875 0 -1.453125 0.390625q-0.640625 0.390625 -1.015625 1.078125q-0.375 0.671875 -0.375 1.53125q0 0.859375 0.375 1.546875q0.375 0.671875 1.015625 1.0625q0.65625 0.390625 1.453125 0.390625zm3.578125 1.390625q-0.34375 0 -0.578125 -0.234375q-0.234375 -0.234375 -0.234375 -0.578125l0 -2.453125l0.3125 -1.6875l1.328125 0.5625l0 3.578125q0 0.34375 -0.234375 0.578125q-0.234375 0.234375 -0.59375 0.234375zm6.440613 -0.015625q-0.796875 0 -1.4375 -0.40625q-0.640625 -0.40625 -1.015625 -1.109375q-0.359375 -0.703125 -0.359375 -1.59375l0 -7.625q0 -0.359375 0.21875 -0.578125q0.21875 -0.21875 0.578125 -0.21875q0.34375 0 0.5625 0.21875q0.234375 0.21875 0.234375 0.578125l0 7.625q0 0.640625 0.34375 1.078125q0.359375 0.4375 0.875 0.4375l0.546875 0q0.28125 0 0.484375 0.21875q0.203125 0.21875 0.203125 0.578125q0 0.34375 -0.265625 0.578125q-0.265625 0.21875 -0.6875 0.21875l-0.28125 0zm-3.546875 -7.0625q-0.34375 0 -0.5625 -0.1875q-0.203125 -0.1875 -0.203125 -0.484375q0 -0.3125 0.203125 -0.5q0.21875 -0.203125 0.5625 -0.203125l3.6875 0q0.34375 0 0.546875 0.203125q0.203125 0.1875 0.203125 0.5q0 0.296875 -0.203125 0.484375q-0.203125 0.1875 -0.546875 0.1875l-3.6875 0zm7.7597656 7.0625q-0.359375 0 -0.59375 -0.234375q-0.234375 -0.234375 -0.234375 -0.578125l0 -7.125q0 -0.359375 0.234375 -0.578125q0.234375 -0.234375 0.59375 -0.234375q0.359375 0 0.578125 0.234375q0.234375 0.21875 0.234375 0.578125l0 7.125q0 0.34375 -0.234375 0.578125q-0.21875 0.234375 -0.578125 0.234375zm0 -10.171875q-0.4375 0 -0.75 -0.3125q-0.3125 -0.3125 -0.3125 -0.75q0 -0.421875 0.3125 -0.734375q0.3125 -0.3125 0.75 -0.3125q0.421875 0 0.734375 0.3125q0.3125 0.3125 0.3125 0.734375q0 0.4375 -0.3125 0.75q-0.3125 0.3125 -0.734375 0.3125zm7.0351562 10.234375q-1.125 0 -2.078125 -0.34375q-0.953125 -0.34375 -1.46875 -0.875q-0.25 -0.25 -0.21875 -0.578125q0.046875 -0.328125 0.328125 -0.53125q0.3125 -0.265625 0.625 -0.21875q0.3125 0.03125 0.546875 0.28125q0.265625 0.296875 0.859375 0.5625q0.609375 0.265625 1.34375 0.265625q0.921875 0 1.40625 -0.296875q0.5 -0.3125 0.515625 -0.796875q0.015625 -0.46875 -0.46875 -0.8125q-0.46875 -0.359375 -1.71875 -0.59375q-1.609375 -0.3125 -2.34375 -0.953125q-0.71875 -0.640625 -0.71875 -1.578125q0 -0.8125 0.46875 -1.34375q0.484375 -0.53125 1.234375 -0.796875q0.765625 -0.265625 1.578125 -0.265625q1.046875 0 1.859375 0.34375q0.828125 0.328125 1.3125 0.921875q0.21875 0.25 0.203125 0.53125q-0.015625 0.28125 -0.28125 0.46875q-0.25 0.171875 -0.609375 0.109375q-0.34375 -0.0625 -0.578125 -0.28125q-0.40625 -0.390625 -0.875 -0.53125q-0.453125 -0.140625 -1.0625 -0.140625q-0.703125 0 -1.203125 0.25q-0.484375 0.234375 -0.484375 0.6875q0 0.296875 0.15625 0.53125q0.15625 0.21875 0.59375 0.40625q0.453125 0.1875 1.3125 0.359375q1.203125 0.25 1.890625 0.625q0.703125 0.359375 1.0 0.84375q0.3125 0.484375 0.3125 1.125q0 0.734375 -0.390625 1.328125q-0.390625 0.59375 -1.15625 0.953125q-0.75 0.34375 -1.890625 0.34375zm8.688049 -0.0625q-0.796875 0 -1.4375 -0.40625q-0.640625 -0.40625 -1.015625 -1.109375q-0.359375 -0.703125 -0.359375 -1.59375l0 -7.625q0 -0.359375 0.21875 -0.578125q0.21875 -0.21875 0.578125 -0.21875q0.34375 0 0.5625 0.21875q0.234375 0.21875 0.234375 0.578125l0 7.625q0 0.640625 0.34375 1.078125q0.359375 0.4375 0.875 0.4375l0.546875 0q0.28125 0 0.484375 0.21875q0.203125 0.21875 0.203125 0.578125q0 0.34375 -0.265625 0.578125q-0.265625 0.21875 -0.6875 0.21875l-0.28125 0zm-3.546875 -7.0625q-0.34375 0 -0.5625 -0.1875q-0.203125 -0.1875 -0.203125 -0.484375q0 -0.3125 0.203125 -0.5q0.21875 -0.203125 0.5625 -0.203125l3.6875 0q0.34375 0 0.546875 0.203125q0.203125 0.1875 0.203125 0.5q0 0.296875 -0.203125 0.484375q-0.203125 0.1875 -0.546875 0.1875l-3.6875 0zm7.7597656 7.0625q-0.359375 0 -0.59375 -0.234375q-0.234375 -0.234375 -0.234375 -0.578125l0 -7.125q0 -0.359375 0.234375 -0.578125q0.234375 -0.234375 0.59375 -0.234375q0.359375 0 0.578125 0.234375q0.234375 0.21875 0.234375 0.578125l0 7.125q0 0.34375 -0.234375 0.578125q-0.21875 0.234375 -0.578125 0.234375zm0 -10.171875q-0.4375 0 -0.75 -0.3125q-0.3125 -0.3125 -0.3125 -0.75q0 -0.421875 0.3125 -0.734375q0.3125 -0.3125 0.75 -0.3125q0.421875 0 0.734375 0.3125q0.3125 0.3125 0.3125 0.734375q0 0.4375 -0.3125 0.75q-0.3125 0.3125 -0.734375 0.3125zm7.816345 10.234375q-1.28125 0 -2.28125 -0.578125q-1.0 -0.59375 -1.578125 -1.59375q-0.5625 -1.0 -0.5625 -2.265625q0 -1.28125 0.5625 -2.296875q0.5625 -1.015625 1.53125 -1.578125q0.984375 -0.5625 2.25 -0.5625q0.9375 0 1.71875 0.359375q0.796875 0.359375 1.421875 1.078125q0.21875 0.25 0.15625 0.53125q-0.0625 0.265625 -0.359375 0.46875q-0.21875 0.171875 -0.5 0.125q-0.265625 -0.0625 -0.484375 -0.296875q-0.78125 -0.828125 -1.953125 -0.828125q-0.8125 0 -1.4375 0.375q-0.625 0.375 -0.984375 1.046875q-0.34375 0.671875 -0.34375 1.578125q0 0.875 0.359375 1.546875q0.359375 0.671875 1.0 1.0625q0.640625 0.390625 1.484375 0.390625q0.5625 0 0.984375 -0.125q0.421875 -0.140625 0.78125 -0.4375q0.25 -0.203125 0.515625 -0.21875q0.28125 -0.03125 0.484375 0.140625q0.28125 0.21875 0.3125 0.5q0.03125 0.28125 -0.203125 0.5q-1.140625 1.078125 -2.875 1.078125zm8.834778 0q-1.125 0 -2.078125 -0.34375q-0.953125 -0.34375 -1.46875 -0.875q-0.25 -0.25 -0.21875 -0.578125q0.046875 -0.328125 0.328125 -0.53125q0.3125 -0.265625 0.625 -0.21875q0.3125 0.03125 0.546875 0.28125q0.265625 0.296875 0.859375 0.5625q0.609375 0.265625 1.34375 0.265625q0.921875 0 1.40625 -0.296875q0.5 -0.3125 0.515625 -0.796875q0.015625 -0.46875 -0.46875 -0.8125q-0.46875 -0.359375 -1.71875 -0.59375q-1.609375 -0.3125 -2.34375 -0.953125q-0.71875 -0.640625 -0.71875 -1.578125q0 -0.8125 0.46875 -1.34375q0.484375 -0.53125 1.234375 -0.796875q0.765625 -0.265625 1.578125 -0.265625q1.046875 0 1.859375 0.34375q0.828125 0.328125 1.3125 0.921875q0.21875 0.25 0.203125 0.53125q-0.015625 0.28125 -0.28125 0.46875q-0.25 0.171875 -0.609375 0.109375q-0.34375 -0.0625 -0.578125 -0.28125q-0.40625 -0.390625 -0.875 -0.53125q-0.453125 -0.140625 -1.0625 -0.140625q-0.703125 0 -1.203125 0.25q-0.484375 0.234375 -0.484375 0.6875q0 0.296875 0.15625 0.53125q0.15625 0.21875 0.59375 0.40625q0.453125 0.1875 1.3125 0.359375q1.203125 0.25 1.890625 0.625q0.703125 0.359375 1.0 0.84375q0.3125 0.484375 0.3125 1.125q0 0.734375 -0.390625 1.328125q-0.390625 0.59375 -1.15625 0.953125q-0.75 0.34375 -1.890625 0.34375z" fill-rule="nonzero"/></g></svg>